<svg width="118" height="118" viewBox="0 0 118 118" fill="none" xmlns="http://www.w3.org/2000/svg">
<mask id="mask0_1_211" style="mask-type:luminance" maskUnits="userSpaceOnUse" x="0" y="0" width="118" height="118">
<path d="M0 0H117.599V117.333H0V0Z" fill="white"/>
</mask>
<g mask="url(#mask0_1_211)">
<path d="M62.9219 78.026C61.9792 77.5833 61.0417 77.1667 60.1042 76.7656V54.9479C61.0417 54.474 61.7448 53.6042 61.9948 52.5573H64.3594C66.349 52.5573 67.9688 50.9375 67.9688 48.9531V45.5052C67.9688 43.7135 66.651 42.2292 64.9375 41.9479V37.2188C64.9375 21.2083 51.9115 8.18229 35.8958 8.18229C19.8854 8.18229 6.85938 21.2083 6.85938 37.2188V41.9479C5.14583 42.2292 3.82812 43.7135 3.82812 45.5052V48.9531C3.82812 50.7135 5.10417 52.1875 6.78125 52.4948V57.8854C6.78125 60.6719 8.94792 62.9583 11.6875 63.1458V76.7656C10.75 77.1667 9.8125 77.5833 8.875 78.0208C3.31771 80.6094 0 85.8177 0 91.9479V115.87C0 116.677 0.656251 117.328 1.46354 117.328H70.3333C71.1406 117.328 71.7917 116.677 71.7917 115.87V91.9479C71.7917 85.8177 68.4792 80.6094 62.9219 78.0208V78.026ZM51.4479 73.625C51.4479 73.625 51.4219 73.6198 51.4115 73.6146C49.4323 72.099 47.375 71.9479 45.2708 71.9479C44.9635 71.9479 44.7135 71.6979 44.7135 71.3906V68.4271C49.7813 65.8229 53.5573 61.0521 54.8073 55.3438H57.1823V75.5885C55.2917 74.8646 53.3854 74.2135 51.4427 73.625H51.4479ZM47.1875 85.9844L49.0417 88.9167L37.5417 100.094L45.1927 74.8698C45.2188 74.8698 45.2448 74.875 45.2708 74.875C47.7552 74.875 49.1094 75.1562 50.5729 76.8281L54.2865 81.0781L47.8438 83.8698C47.4479 84.0417 47.151 84.3698 47.026 84.7812C46.901 85.1875 46.9583 85.6302 47.1875 85.9896V85.9844ZM24.7656 84.776C24.6406 84.3698 24.3438 84.0365 23.9479 83.8646L17.5052 81.0729L21.2188 76.8229C22.6771 75.151 24.0365 74.8698 26.5208 74.8698C26.5469 74.8698 26.5729 74.8646 26.599 74.8646L34.25 100.089L22.75 88.9115L24.6042 85.9792C24.8333 85.6198 24.8906 85.1771 24.7604 84.7708L24.7656 84.776ZM31.2292 63.1615C31.7865 64.4115 33.0417 65.2812 34.4948 65.2812H38.4479C40.4219 65.2812 42.026 63.6771 42.026 61.7031C42.026 59.7292 40.4219 58.125 38.4479 58.125H34.4948C33.0417 58.125 31.7865 58.9948 31.2292 60.2396H22.1771C20.4531 57.6406 19.4479 54.5313 19.4479 51.1875V41.8958C30.7292 40.7083 39.6406 38.599 47.1719 35.3229C47.5208 37.9948 49.2552 40.0729 52.3385 41.5312V51.1875C52.3385 60.2552 44.9635 67.6302 35.8958 67.6302C31.5417 67.6302 27.5833 65.9323 24.6406 63.1615H31.2292ZM33.8333 61.7031C33.8333 61.349 34.1354 61.0469 34.4948 61.0469H38.4479C38.8021 61.0469 39.1042 61.349 39.1042 61.7031C39.1042 62.0573 38.8021 62.3594 38.4479 62.3594H34.4948C34.1354 62.3594 33.8333 62.0573 33.8333 61.7031ZM55.2656 51.1875V42.0365H58.474C58.8542 42.0365 59.1719 42.3594 59.1719 42.7396V51.724C59.1719 52.099 58.8542 52.4219 58.474 52.4219H55.224C55.25 52.0156 55.2656 51.6042 55.2656 51.1875ZM57.1875 39.1146H54.0938C50.0625 37.4219 49.8125 35.2031 50.1042 33.2552C50.1875 32.7188 49.9635 32.1823 49.5312 31.8646C49.0938 31.5417 48.5156 31.4844 48.026 31.7188C40.1042 35.526 30.5365 37.8802 17.9167 39.1146H14.6094V36.7083C14.6094 24.9688 24.1615 15.4167 35.8958 15.4167C47.6354 15.4167 57.1875 24.9688 57.1875 36.7083V39.1146ZM13.3229 52.4219C12.9427 52.4219 12.6198 52.099 12.6198 51.724V42.7396C12.6198 42.3594 12.9427 42.0365 13.3229 42.0365H16.526V51.1875C16.526 51.6042 16.5469 52.0156 16.5729 52.4219H13.3229ZM14.6094 55.3438H16.9844C17.3646 57.0729 17.974 58.7188 18.7812 60.2396H14.6094V55.3438ZM35.8958 70.5521C37.9531 70.5521 39.9323 70.2292 41.7917 69.6354V71.3906C41.7917 72.2031 42.0729 72.9531 42.5417 73.5469L39.1615 84.6927C38.1094 85.0156 37.0104 85.1875 35.8958 85.1875C34.7812 85.1875 33.6875 85.0208 32.6354 84.6927L29.25 73.5469C29.724 72.9531 30.0052 72.2031 30.0052 71.3906V69.6354C31.8646 70.2292 33.8438 70.5521 35.8958 70.5521ZM33.6094 87.9219C34.3646 88.0417 35.125 88.1094 35.8958 88.1094C36.6667 88.1094 37.4323 88.0417 38.1823 87.9219L35.8958 95.4531L33.6094 87.9219ZM65.0417 48.9531C65.0417 49.3281 64.7292 49.6406 64.3542 49.6406H62.0938V44.8229H64.3542C64.7292 44.8229 65.0417 45.1354 65.0417 45.5104V48.9531ZM35.8958 11.1042C50.2969 11.1042 62.0156 22.8229 62.0156 37.2188V41.901H61.9948C61.7448 40.8542 61.0417 39.9844 60.1042 39.5104V36.7031C60.1042 23.3542 49.2448 12.4948 35.8958 12.4948C22.5469 12.4948 11.6875 23.3542 11.6875 36.7031V39.5104C10.7552 39.9844 10.0521 40.8542 9.80208 41.901H9.78125V37.2188C9.78125 22.8177 21.4948 11.1042 35.8958 11.1042ZM6.75 45.5104C6.75 45.1354 7.06771 44.8229 7.4375 44.8229H9.69792V49.6406H7.4375C7.06771 49.6406 6.75 49.3281 6.75 48.9531V45.5104ZM9.70312 57.8906V52.5625H9.80208C10.0521 53.6042 10.75 54.474 11.6875 54.9531V60.2135C10.5677 60.0365 9.70312 59.0625 9.70312 57.8906ZM14.6094 63.1615H20.6927C22.4115 65.3438 24.5938 67.1458 27.0833 68.4219V71.3906C27.0833 71.6979 26.8333 71.9479 26.526 71.9479C24.4219 71.9479 22.3594 72.099 20.3854 73.6094C20.3698 73.6146 20.3542 73.6146 20.3438 73.6198C18.4062 74.2083 16.5 74.8594 14.6094 75.5833V63.1615ZM68.8698 114.411H60.7083V102.021C60.7083 101.214 60.0521 100.562 59.2448 100.562C58.4427 100.562 57.7865 101.214 57.7865 102.021V114.411H14.0104V102.021C14.0104 101.214 13.3542 100.562 12.5469 100.562C11.7396 100.562 11.0885 101.214 11.0885 102.021V114.411H2.92188V91.9479C2.92188 86.9844 5.60938 82.7708 10.1094 80.6719C12.151 79.7135 14.1823 78.8698 16.224 78.1042L13.9948 80.6562C13.6875 81.0104 13.5625 81.4844 13.6719 81.9427C13.7708 82.3958 14.0885 82.7708 14.5156 82.9583L21.2292 85.8698L19.6562 88.3594C19.2865 88.9427 19.3802 89.7031 19.8698 90.1875L34.8854 104.776C35.1667 105.052 35.5365 105.188 35.901 105.188C36.2708 105.188 36.6354 105.052 36.9219 104.776L51.9323 90.1875C52.4271 89.7031 52.5208 88.9427 52.151 88.3594L50.5781 85.8698L57.2917 82.9583C57.7188 82.7708 58.0312 82.3958 58.1354 81.9427C58.2344 81.4844 58.1198 81.0104 57.8125 80.6562L55.5781 78.1042C57.625 78.8698 59.651 79.7188 61.6979 80.6719C66.1927 82.7708 68.8802 86.9844 68.8802 91.9479V114.411H68.8698ZM112.474 0H72.1042C69.4219 0 67.2448 2.17708 67.2448 4.85938V27.0781C67.2448 29.6823 69.3646 31.8646 71.9688 31.9323C72.2552 31.9427 72.4635 32.0365 72.6562 32.2448C72.8542 32.4583 72.9271 32.6719 72.9115 32.9583L72.776 35.2396C72.7396 35.7917 73.0208 36.3177 73.5 36.5938C73.7292 36.724 73.9844 36.7917 74.2344 36.7917C74.5104 36.7917 74.7969 36.7083 75.0365 36.5469L79.401 33.6667C81.1927 32.4844 83.026 31.9323 85.1719 31.9323H112.479C115.156 31.9323 117.339 29.7552 117.339 27.0729V4.85938C117.339 2.17708 115.156 0 112.479 0H112.474ZM114.411 27.0781C114.411 28.1458 113.542 29.0156 112.474 29.0156H85.1719C82.4271 29.0156 80.0781 29.7188 77.7917 31.2292L75.8177 32.5312C75.7448 31.6875 75.401 30.9167 74.8125 30.2708C74.0833 29.4792 73.125 29.0417 72.0469 29.0104C71.0104 28.9844 70.1667 28.1146 70.1667 27.0729V4.85938C70.1667 3.79167 71.0365 2.92187 72.1042 2.92187H112.474C113.542 2.92187 114.411 3.79167 114.411 4.85938V27.0781ZM110.156 8.52604C110.156 9.32812 109.505 9.98438 108.698 9.98438H75.8802C75.0729 9.98438 74.4219 9.32812 74.4219 8.52604C74.4219 7.71875 75.0729 7.0625 75.8802 7.0625H108.698C109.505 7.0625 110.156 7.71875 110.156 8.52604ZM110.156 15.9687C110.156 16.7708 109.505 17.4271 108.698 17.4271H75.8802C75.0729 17.4271 74.4219 16.7708 74.4219 15.9687C74.4219 15.1615 75.0729 14.5052 75.8802 14.5052H108.698C109.505 14.5052 110.156 15.1615 110.156 15.9687ZM110.156 23.4115C110.156 24.2188 109.505 24.8698 108.698 24.8698H75.8802C75.0729 24.8698 74.4219 24.2188 74.4219 23.4115C74.4219 22.6042 75.0729 21.9479 75.8802 21.9479H108.698C109.505 21.9479 110.156 22.6042 110.156 23.4115Z" fill="#292F33"/>
</g>
</svg>
