<svg width="92" height="113" viewBox="0 0 92 113" fill="none" xmlns="http://www.w3.org/2000/svg">
<mask id="mask0_3_46" style="mask-type:luminance" maskUnits="userSpaceOnUse" x="0" y="0" width="92" height="113">
<path d="M0 0H91.7917V112.745H0V0Z" fill="white"/>
</mask>
<g mask="url(#mask0_3_46)">
<path d="M91.7864 40.2448V79.8281C91.7864 87.9271 85.2239 94.5156 77.1614 94.5156H46.1823L29.1458 111.62C28.401 112.359 27.4531 112.75 26.4739 112.75C25.9739 112.75 25.4739 112.651 24.9844 112.443C23.5573 111.854 22.6354 110.464 22.6354 108.906V94.5156H14.6302C6.56769 94.5156 0.00518799 87.9271 0.00518799 79.8281V40.2448C0.00518799 32.1458 6.56769 25.5521 14.6302 25.5521H46.2969C47.1771 25.5521 47.8906 26.2708 47.8906 27.151C47.8906 28.0312 47.1771 28.75 46.2969 28.75H14.6302C8.31769 28.75 3.18748 33.9062 3.18748 40.2448V79.8281C3.18748 86.1667 8.31769 91.3229 14.6302 91.3229H24.2239C25.1041 91.3229 25.8125 92.0365 25.8125 92.9167V108.906C25.8125 109.182 25.9531 109.391 26.2031 109.495C26.4583 109.604 26.7083 109.552 26.9062 109.359L44.401 91.7917C44.6979 91.4896 45.1041 91.3229 45.526 91.3229H77.1614C83.4687 91.3229 88.6041 86.1667 88.6041 79.8281V40.2448C88.6041 33.9062 83.4687 28.75 77.1614 28.75C76.2812 28.75 75.5729 28.0312 75.5729 27.151C75.5729 26.2708 76.2812 25.5521 77.1614 25.5521C85.2239 25.5521 91.7864 32.1458 91.7864 40.2448ZM68.9323 40.2448C68.9323 41.125 69.6458 41.8438 70.5208 41.8438H75.1458C76.026 41.8438 76.7396 41.125 76.7396 40.2448C76.7396 39.3646 76.026 38.6458 75.1458 38.6458H70.5208C69.6458 38.6458 68.9323 39.3646 68.9323 40.2448ZM16.6458 41.8438H27.6406C28.5208 41.8438 29.2344 41.125 29.2344 40.2448C29.2344 39.3646 28.5208 38.6458 27.6406 38.6458H16.6458C15.7656 38.6458 15.0521 39.3646 15.0521 40.2448C15.0521 41.125 15.7656 41.8438 16.6458 41.8438ZM16.6458 54.6094H29.2291C30.1041 54.6094 30.8177 53.8958 30.8177 53.0156C30.8177 52.1302 30.1041 51.4167 29.2291 51.4167H16.6458C15.7656 51.4167 15.0521 52.1302 15.0521 53.0156C15.0521 53.8958 15.7656 54.6094 16.6458 54.6094ZM75.1458 64.1875H63.6771C62.7969 64.1875 62.0885 64.901 62.0885 65.7812C62.0885 66.6667 62.7969 67.3802 63.6771 67.3802H75.1458C76.026 67.3802 76.7344 66.6667 76.7344 65.7812C76.7344 64.901 76.026 64.1875 75.1458 64.1875ZM56.8906 64.1875C56.0104 64.1875 55.3021 64.901 55.3021 65.7812C55.3021 66.6667 56.0104 67.3802 56.8906 67.3802H58.5469C59.4219 67.3802 60.1354 66.6667 60.1354 65.7812C60.1354 64.901 59.4219 64.1875 58.5469 64.1875H56.8906ZM75.1458 76.9531H67.8646C66.9844 76.9531 66.2708 77.6719 66.2708 78.5521C66.2708 79.4323 66.9844 80.151 67.8646 80.151H75.1458C76.026 80.151 76.7344 79.4323 76.7344 78.5521C76.7344 77.6719 76.026 76.9531 75.1458 76.9531ZM61.0937 10.599C61.0989 10.5937 61.1041 10.5885 61.1041 10.5833L66.6927 0.864581C66.901 0.499998 67.25 0.234372 67.6562 0.119789C68.0677 0.0104142 68.5 0.0677058 68.8646 0.281247L81.6198 7.67708C82.3802 8.11979 82.6406 9.09375 82.2031 9.85937L58.3073 51.4167H75.1458C76.026 51.4167 76.7344 52.1302 76.7344 53.0156C76.7344 53.8958 76.026 54.6094 75.1458 54.6094H56.4687L47.2291 70.6823C47.2239 70.6927 47.2135 70.7031 47.2083 70.7188C47.1875 70.7448 47.1719 70.776 47.151 70.8021C47.1406 70.8177 47.1302 70.8333 47.1198 70.849C47.0989 70.875 47.0781 70.901 47.0573 70.9271C47.0416 70.9427 47.026 70.9583 47.0156 70.974C46.9948 70.9948 46.9739 71.0156 46.9479 71.0365C46.9323 71.0573 46.9114 71.0729 46.8906 71.0885C46.875 71.1042 46.8541 71.125 46.8333 71.1406C46.8073 71.1615 46.7812 71.1771 46.7552 71.1927C46.7396 71.2083 46.7239 71.2188 46.7083 71.2292L37.7969 76.9531H60.5469C61.4271 76.9531 62.1406 77.6719 62.1406 78.5521C62.1406 79.4323 61.4271 80.151 60.5469 80.151H16.6458C15.7656 80.151 15.0521 79.4323 15.0521 78.5521C15.0521 77.6719 15.7656 76.9531 16.6458 76.9531H30.8437L31.2812 67.3802H16.6458C15.7656 67.3802 15.0521 66.6667 15.0521 65.7812C15.0521 64.901 15.7656 64.1875 16.6458 64.1875H31.4271L31.5052 62.4427L31.5104 62.4115C31.5104 62.401 31.5104 62.3854 31.5104 62.375C31.5156 62.3385 31.5156 62.3021 31.5208 62.2656C31.526 62.2448 31.526 62.2292 31.5312 62.2083C31.5364 62.1771 31.5416 62.1406 31.5521 62.1094C31.5573 62.0885 31.5625 62.0677 31.5677 62.0521C31.5781 62.0208 31.5833 61.9896 31.5989 61.9583C31.6041 61.9375 31.6094 61.9219 31.6198 61.901C31.6302 61.8698 31.6406 61.8385 31.6562 61.8073C31.6666 61.7917 31.6719 61.7812 31.6823 61.7656C31.6927 61.7396 31.7031 61.7135 31.7187 61.6875L43.1302 41.8438H36.0677C35.1875 41.8438 34.4739 41.125 34.4739 40.2448C34.4739 39.3646 35.1875 38.6458 36.0677 38.6458H44.5989C44.7187 38.6458 44.8333 38.6615 44.9427 38.6875L61.0885 10.6094C61.0885 10.6042 61.0937 10.599 61.0937 10.5937V10.599ZM35.2708 61.901L45.2708 67.7031L73.0573 19.375L63.0573 13.5781L35.2708 61.901ZM34.0937 75.5469L42.7916 69.9531L34.5677 65.1823L34.5364 65.7708C34.5364 65.776 34.5416 65.7812 34.5416 65.7812C34.5416 65.8385 34.5364 65.8958 34.5312 65.9479L34.0937 75.5417V75.5469ZM64.6458 10.8125L74.651 16.6094L78.651 9.64583L68.651 3.84896L64.6458 10.8125Z" fill="black"/>
</g>
</svg>
