<svg width="85" height="92" viewBox="0 0 85 92" fill="none" xmlns="http://www.w3.org/2000/svg">
<path d="M70.8281 39L66.2916 38.9843L66.3281 25.3229H56.6874V20.7916H66.6979C67.8072 20.7916 68.8593 21.2239 69.6458 22.0104C70.4322 22.802 70.8645 23.8489 70.8593 24.9635L70.8281 39Z" fill="#494747"/>
<path d="M74.0104 41.2656H63.7187C61.4218 41.2656 59.5573 39.3958 59.5573 37.0989V23.0573H64.0885V36.7291H74.0104V41.2656Z" fill="#494747"/>
<path d="M64.5312 19.8229C61.4166 19.8229 58.8802 17.2864 58.8802 14.1719C58.8802 11.0521 61.4166 8.52081 64.5312 8.52081C67.6458 8.52081 70.1823 11.0521 70.1823 14.1719C70.1823 17.2864 67.6458 19.8229 64.5312 19.8229ZM64.5312 13.0521C63.9166 13.0521 63.4114 13.5521 63.4114 14.1719C63.4114 14.7864 63.9166 15.2864 64.5312 15.2864C65.1458 15.2864 65.651 14.7864 65.651 14.1719C65.651 13.5521 65.1458 13.0521 64.5312 13.0521Z" fill="#494747"/>
<mask id="mask0_3_65" style="mask-type:luminance" maskUnits="userSpaceOnUse" x="11" y="0" width="74" height="92">
<path d="M11.4791 0H84.8073V91.7917H11.4791V0Z" fill="white"/>
</mask>
<g mask="url(#mask0_3_65)">
<path d="M79.6718 92.1771H18.0624C15.0624 92.1771 12.6249 89.7396 12.6249 86.7448V80.3542H17.1614V86.7448C17.1614 87.2396 17.5624 87.6458 18.0624 87.6458H79.6718C80.1666 87.6458 80.5729 87.2396 80.5729 86.7448V5.43229C80.5729 4.9375 80.1666 4.53125 79.6718 4.53125H31.7968L17.1614 21.8177V40.8073H12.6249V20.1562L29.6926 0H79.6718C82.6666 0 85.1041 2.4375 85.1041 5.43229V86.7448C85.1041 89.7396 82.6666 92.1823 79.6718 92.1823V92.1771Z" fill="#494747"/>
</g>
<path d="M31.2865 27.1562H19.3594V22.625H31.2865C31.7812 22.625 32.1875 22.2188 32.1875 21.724V6.79688H36.7188V21.724C36.7188 24.7188 34.2812 27.1562 31.2865 27.1562Z" fill="#494747"/>
<path d="M39.8177 45.4271H73.9948V49.9635H39.8177V45.4271Z" fill="#494747"/>
<path d="M44.4114 54.4062H73.9948V58.9427H44.4114V54.4062Z" fill="#494747"/>
<path d="M44.4114 63.3854H73.9948V67.9218H44.4114V63.3854Z" fill="#494747"/>
<path d="M39.8177 72.3646H73.9948V76.901H39.8177V72.3646Z" fill="#494747"/>
<path d="M23.7396 54.4062H33.3854V58.9427H23.7396V54.4062Z" fill="#494747"/>
<path d="M23.7396 63.3854H33.3854V67.9218H23.7396V63.3854Z" fill="#494747"/>
<path d="M23.3229 78.2604C20.901 78.2604 18.5521 77.7864 16.3385 76.8489C14.2031 75.9479 12.2812 74.651 10.6354 73.0052C8.98956 71.3594 7.69269 69.4427 6.79165 67.3021C5.85415 65.0885 5.38019 62.7396 5.38019 60.3229C5.38019 57.901 5.85415 55.5521 6.79165 53.3385C7.69269 51.1979 8.98956 49.2812 10.6354 47.6354C12.2812 45.9896 14.1979 44.6927 16.3385 43.7916C18.5521 42.8541 20.901 42.3802 23.3229 42.3802C25.7396 42.3802 28.0937 42.8541 30.3021 43.7916C32.4427 44.6927 34.3594 45.9896 36.0052 47.6354C37.651 49.2812 38.9479 51.1979 39.8489 53.3385C40.7864 55.5521 41.2604 57.901 41.2604 60.3229C41.2604 62.7396 40.7864 65.0885 39.8489 67.3021C38.9479 69.4427 37.651 71.3594 36.0052 73.0052C34.3594 74.651 32.4427 75.9479 30.3021 76.8489C28.0937 77.7864 25.7396 78.2604 23.3229 78.2604ZM23.3229 46.9166C15.9271 46.9166 9.91665 52.9271 9.91665 60.3229C9.91665 67.7135 15.9271 73.7239 23.3229 73.7239C30.7135 73.7239 36.7239 67.7135 36.7239 60.3229C36.7239 52.9271 30.7135 46.9166 23.3229 46.9166Z" fill="#494747"/>
<mask id="mask1_3_65" style="mask-type:luminance" maskUnits="userSpaceOnUse" x="0" y="68" width="15" height="15">
<path d="M0 68.2864H14.1458V82.9531H0V68.2864Z" fill="white"/>
</mask>
<g mask="url(#mask1_3_65)">
<path d="M0.03125 79.0573L9.98438 69.1041L13.1875 72.3125L3.23958 82.2656L0.03125 79.0573Z" fill="#494747"/>
</g>
</svg>
