<svg width="104" height="86" viewBox="0 0 104 86" fill="none" xmlns="http://www.w3.org/2000/svg">
<mask id="mask0_3_63" style="mask-type:luminance" maskUnits="userSpaceOnUse" x="0" y="0" width="90" height="78">
<path d="M0 0H89.9583V77.1302H0V0Z" fill="white"/>
</mask>
<g mask="url(#mask0_3_63)">
<path d="M44.9479 59.1875C44.9479 59.1875 44.9479 59.1875 44.9427 59.1875C44.9167 59.1875 44.8958 59.1875 44.8698 59.1875C44.8646 59.1875 44.8594 59.1875 44.8594 59.1875C44.8333 59.1927 44.8073 59.1927 44.7812 59.1979C44.7812 59.1979 44.776 59.1979 44.7708 59.1979C44.75 59.1979 44.724 59.2031 44.7031 59.2031C44.6979 59.2083 44.6927 59.2083 44.6875 59.2083C44.6667 59.2083 44.6458 59.2135 44.625 59.2188C44.6146 59.2188 44.6094 59.224 44.599 59.224C44.5833 59.2292 44.5677 59.2292 44.5469 59.2344C44.5365 59.2396 44.526 59.2396 44.5156 59.2448C44.5 59.2448 44.4896 59.25 44.474 59.2552C44.4583 59.2604 44.4427 59.2656 44.4271 59.2656C44.4219 59.2708 44.4115 59.276 44.401 59.276C44.3854 59.2865 44.3646 59.2917 44.349 59.2969C44.3385 59.3021 44.3333 59.3021 44.3281 59.3021C44.3073 59.3125 44.2865 59.3229 44.2656 59.3281C44.2604 59.3333 44.2552 59.3333 44.2552 59.3385C44.2292 59.3438 44.2083 59.3542 44.1875 59.3646C44.1823 59.3698 44.1771 59.3698 44.1771 59.375C44.1563 59.3854 44.1302 59.3958 44.1094 59.4062C44.1094 59.4062 44.1094 59.4115 44.1042 59.4115L21.1875 72.4479L18.8073 60.5677C18.7812 60.4219 18.7344 60.2865 18.6719 60.1562C18.5781 59.9583 18.4479 59.7813 18.2865 59.6406C18.2865 59.6354 18.2812 59.6302 18.2812 59.6302C18.2656 59.6198 18.25 59.6042 18.2396 59.5938C18.2292 59.5885 18.224 59.5833 18.2187 59.5729C18.2083 59.5677 18.1979 59.5573 18.1875 59.5521C18.1719 59.5417 18.1615 59.5312 18.151 59.526C18.1458 59.5208 18.1354 59.5156 18.1302 59.5104C18.1146 59.5 18.099 59.4844 18.0833 59.474C18.0781 59.474 18.0781 59.474 18.0729 59.4688C17.9375 59.3802 17.7917 59.3125 17.6354 59.2604C17.6094 59.2552 17.5833 59.25 17.5573 59.2396C17.4167 59.2031 17.276 59.1875 17.125 59.1875H14.1719C8.26042 59.1875 3.45312 54.3802 3.45312 48.4688V14.1406C3.45312 8.22917 8.26042 3.41667 14.1719 3.41667H75.7292C78.7656 3.41667 81.6458 4.69792 83.6771 6.94792V6.95312C85.401 8.85417 86.4479 11.375 86.4479 14.1406V48.4688C86.4479 48.5573 86.4479 48.6458 86.4427 48.7344C86.4427 48.7656 86.4427 48.7917 86.4427 48.8229C86.4375 48.8802 86.4375 48.9427 86.4375 49C86.4323 49.0365 86.4323 49.0729 86.4271 49.1042C86.4271 49.1615 86.4219 49.2135 86.4167 49.2656C86.4167 49.3021 86.4115 49.3385 86.4115 49.3802C86.4062 49.4271 86.401 49.4792 86.3958 49.526C86.3906 49.5677 86.3854 49.6042 86.3854 49.6458C86.3802 49.6927 86.375 49.7396 86.3646 49.7865C86.3646 49.8281 86.3542 49.8646 86.349 49.9062C86.3438 49.9531 86.3385 50 86.3333 50.0469C86.3281 50.0833 86.3177 50.125 86.3125 50.1667C86.3073 50.2135 86.2969 50.2552 86.2917 50.3021C86.2812 50.3438 86.276 50.3854 86.2708 50.4219C86.2604 50.4688 86.25 50.5104 86.2448 50.5573C86.2344 50.599 86.2292 50.6406 86.2188 50.6771C86.2083 50.724 86.1979 50.7656 86.1875 50.8073C86.1823 50.849 86.1719 50.8906 86.1615 50.9323C86.151 50.974 86.1406 51.0156 86.1302 51.0573C86.1198 51.099 86.1094 51.1406 86.099 51.1823C86.0885 51.224 86.0781 51.2656 86.0677 51.3073C86.0573 51.3438 86.0417 51.3854 86.0312 51.4271C86.0208 51.4688 86.0104 51.5104 85.9948 51.5469C85.9844 51.5885 85.974 51.6302 85.9583 51.6719C85.9479 51.7135 85.9323 51.75 85.9219 51.7865C85.9062 51.8281 85.8958 51.875 85.8802 51.9167C85.8698 51.9479 85.8594 51.9792 85.8438 52.0104C85.8021 52.1302 85.7604 52.25 85.7135 52.3646C85.7135 52.3698 85.7083 52.375 85.7083 52.3802C85.6875 52.4323 85.6667 52.4844 85.6458 52.5312C85.6354 52.5573 85.625 52.5885 85.6146 52.6146C85.5938 52.6615 85.5729 52.7083 85.5521 52.7552C85.5365 52.7865 85.526 52.8177 85.5156 52.8438C85.4896 52.8906 85.4688 52.9375 85.4479 52.9844C85.4375 53.0104 85.4219 53.0417 85.4062 53.0729C85.3854 53.1198 85.3646 53.1615 85.3385 53.2083C85.3281 53.2396 85.3125 53.2656 85.2969 53.2969C85.276 53.3438 85.25 53.3854 85.2292 53.4323C85.2135 53.4583 85.1979 53.4896 85.1823 53.5156C85.1562 53.5625 85.1354 53.6042 85.1094 53.651C85.0938 53.6771 85.0781 53.7083 85.0625 53.7344C85.0365 53.7812 85.0104 53.8229 84.9844 53.8698C84.9688 53.8958 84.9531 53.9219 84.9375 53.9479C84.9115 53.9948 84.8854 54.0365 84.8542 54.0833C84.8385 54.1094 84.8229 54.1354 84.8073 54.1562C84.7812 54.2031 84.75 54.25 84.724 54.2917C84.7083 54.3177 84.6927 54.3385 84.6771 54.3646C84.6458 54.4115 84.6146 54.4531 84.5833 54.5C84.5677 54.5208 84.5573 54.5417 84.5417 54.5677C84.5052 54.6094 84.474 54.6562 84.4427 54.7031C84.4271 54.724 84.4167 54.7396 84.401 54.7604C84.3646 54.8073 84.3333 54.8542 84.2969 54.9062C84.2865 54.9167 84.276 54.9271 84.2708 54.9375C84.0833 55.1823 83.8854 55.4219 83.6771 55.651C81.7135 57.8229 78.8802 59.1875 75.7292 59.1875H44.9479ZM84.2135 59.776H84.2188C84.3021 59.7083 84.3906 59.6458 84.474 59.5781C84.4792 59.5729 84.4844 59.5677 84.4948 59.5625C84.5729 59.5 84.651 59.4375 84.7292 59.3698C84.7448 59.3594 84.7552 59.349 84.7708 59.3385C84.8438 59.276 84.9115 59.2188 84.9844 59.1562C85.0052 59.1354 85.0312 59.1146 85.0573 59.0938C85.1146 59.0417 85.1719 58.9896 85.2344 58.9375C85.2708 58.8958 85.3125 58.8594 85.349 58.8229C85.3958 58.7865 85.4375 58.7448 85.4792 58.7031C85.5625 58.625 85.6458 58.5469 85.724 58.4635C87.8958 56.2969 89.2708 53.5417 89.7135 50.5625C89.8177 49.875 89.8646 49.1771 89.8646 48.4688V14.1406C89.8646 10.4688 88.4792 7.01562 85.9531 4.375C85.9219 4.33854 85.8854 4.30729 85.8542 4.27083C85.8125 4.22917 85.7708 4.18229 85.724 4.14062C85.7188 4.13021 85.7083 4.11979 85.6979 4.11458C85.6615 4.07813 85.625 4.04167 85.5938 4.01042C85.5417 3.95833 85.4896 3.90625 85.4323 3.85938C85.401 3.82813 85.3646 3.79167 85.3333 3.76042C85.276 3.70833 85.2135 3.65625 85.1562 3.60417C85.1302 3.57813 85.099 3.55208 85.0677 3.52604C85 3.46354 84.9271 3.40104 84.8542 3.33854C84.8385 3.32292 84.8229 3.3125 84.8073 3.29688C84.4427 2.99479 84.0677 2.70833 83.6771 2.44271V2.44792C81.3542 0.864583 78.5938 0 75.7292 0H14.1719C10.3958 0 6.84375 1.46875 4.17708 4.14062C1.50521 6.8125 0.03125 10.3594 0.03125 14.1406V48.4688C0.03125 52.2448 1.50521 55.7969 4.17708 58.4635C6.84375 61.1354 10.3958 62.6042 14.1719 62.6042H15.7292L18.2969 75.4375C18.4063 75.974 18.7656 76.4271 19.2656 76.6562C19.4896 76.7604 19.7292 76.8125 19.974 76.8125C20.2656 76.8125 20.5573 76.7344 20.8177 76.5885L45.401 62.6042H75.7292C78.8281 62.6042 81.7812 61.6146 84.2135 59.776Z" fill="#292F33"/>
</g>
<mask id="mask1_3_63" style="mask-type:luminance" maskUnits="userSpaceOnUse" x="46" y="11" width="58" height="75">
<path d="M46.3646 11.3073H103.401V85.3334H46.3646V11.3073Z" fill="white"/>
</mask>
<g mask="url(#mask1_3_63)">
<path d="M99.2605 12.6667C98.9532 12.3594 98.6042 12.0521 98.2657 11.7761C98.2344 11.7448 98.198 11.7136 98.1615 11.6875C98.1563 11.6875 98.1563 11.6875 98.1563 11.6823C97.8699 11.4688 97.5157 11.3386 97.1303 11.3386C96.1824 11.3386 95.4167 12.1042 95.4167 13.0469C95.4167 13.5834 95.6667 14.0625 96.0521 14.375C98.4271 16.3438 99.9792 19.3438 99.9792 22.6615V56.9896C99.9792 62.9011 95.1719 67.7136 89.2605 67.7136H86.3074C86.1563 67.7084 86.0157 67.7292 85.8751 67.7656C85.849 67.7709 85.823 67.7813 85.7969 67.7865C85.6407 67.8334 85.4949 67.9063 85.3594 67.9948C85.3542 67.9948 85.3542 68 85.349 68C85.3334 68.0104 85.3178 68.0209 85.3021 68.0365C85.2969 68.0365 85.2917 68.0417 85.2813 68.0469C85.2709 68.0573 85.2605 68.0677 85.2501 68.0729C85.2396 68.0834 85.2292 68.0938 85.2136 68.099C85.2084 68.1042 85.2032 68.1094 85.1928 68.1198C85.1824 68.1302 85.1667 68.1406 85.1511 68.1563L85.1459 68.1615C84.9844 68.3073 84.8542 68.4792 84.7605 68.6771C84.698 68.8073 84.6511 68.9479 84.6251 69.0886L82.2501 80.9688L59.3282 67.9375C59.323 67.9323 59.323 67.9323 59.323 67.9323C59.3021 67.9219 59.2813 67.9063 59.2553 67.8959C59.2553 67.8959 59.2501 67.8959 59.2449 67.8906C59.224 67.8802 59.2032 67.8698 59.1824 67.8594C59.1771 67.8594 59.1719 67.8542 59.1667 67.8542C59.1459 67.8438 59.1251 67.8386 59.1042 67.8281C59.099 67.8281 59.0938 67.8229 59.0834 67.8229C59.0678 67.8125 59.0469 67.8073 59.0313 67.8021C59.0209 67.7969 59.0105 67.7969 59.0053 67.7917C58.9896 67.7865 58.974 67.7813 58.9584 67.7813C58.9428 67.7761 58.9324 67.7709 58.9167 67.7656C58.9063 67.7656 58.8959 67.7604 58.8855 67.7604C58.8699 67.7552 58.849 67.75 58.8334 67.75C58.8282 67.7448 58.8178 67.7448 58.8074 67.7448C58.7865 67.7396 58.7709 67.7344 58.7501 67.7344C58.7396 67.7292 58.7344 67.7292 58.7292 67.7292C58.7084 67.724 58.6824 67.724 58.6615 67.7188C58.6563 67.7188 58.6563 67.7188 58.6511 67.7188C58.6251 67.7188 58.599 67.7136 58.573 67.7136C58.573 67.7136 58.5678 67.7136 58.5626 67.7136C58.5365 67.7136 58.5157 67.7136 58.4896 67.7136C58.4844 67.7136 58.4844 67.7136 58.4844 67.7136H48.099C47.1563 67.7136 46.3907 68.4792 46.3907 69.4219C46.3907 70.3646 47.1563 71.1302 48.099 71.1302H58.0313L82.6146 85.1094C82.8751 85.2604 83.1667 85.3334 83.4584 85.3334C83.7032 85.3334 83.9428 85.2865 84.1719 85.1823C84.6667 84.9531 85.0261 84.5 85.1355 83.9636L87.7032 71.1302H89.2605C93.0365 71.1302 96.5886 69.6615 99.2605 66.9896C101.927 64.3177 103.401 60.7656 103.401 56.9896V22.6615C103.401 18.8854 101.927 15.3334 99.2605 12.6667Z" fill="#292F33"/>
</g>
<path d="M30.9323 21.2188C31.875 21.2188 32.6406 20.4532 32.6406 19.5105C32.6406 18.5677 31.875 17.8021 30.9323 17.8021H19.3854C18.4427 17.8021 17.6771 18.5677 17.6771 19.5105V42.4584C17.6771 43.4063 18.4427 44.1667 19.3854 44.1667C20.3333 44.1667 21.0989 43.4063 21.0989 42.4584V32.2761H28.9114C29.8541 32.2761 30.6198 31.5105 30.6198 30.5677C30.6198 29.6198 29.8541 28.8542 28.9114 28.8542H21.0989V21.2188H30.9323Z" fill="#292F33"/>
<path d="M38.4011 32.4167L41.2084 24.5625L44.0521 32.4167H38.4011ZM42.8073 18.9271C42.5625 18.25 41.9219 17.8021 41.1979 17.8021C40.474 17.8021 39.8334 18.2552 39.5886 18.9375L31.3854 41.8907C31.0677 42.7761 31.5313 43.7553 32.4167 44.073C32.6094 44.1407 32.8021 44.1771 32.9948 44.1771C33.6979 44.1771 34.3542 43.7396 34.6042 43.0417L37.1771 35.8386H45.2865L47.8959 43.0469C48.2136 43.9323 49.1927 44.3959 50.0834 44.073C50.9688 43.75 51.4323 42.7709 51.1094 41.8855L42.8073 18.9271Z" fill="#292F33"/>
<path d="M71.4844 40.5573C71.9531 40.0521 72.3906 39.4948 72.776 38.9063C74.2969 36.6042 75.1042 33.8594 75.1042 30.9584C75.1042 27.4948 73.9427 24.224 71.8281 21.7552C69.651 19.2032 66.7344 17.8021 63.6146 17.8021C60.4948 17.8021 57.5729 19.2032 55.3958 21.7552C53.2865 24.224 52.125 27.4948 52.125 30.9584C52.125 33.9636 53.026 36.9011 54.6719 39.2292C56.3281 41.5834 58.6667 43.224 61.2448 43.8386C62.0208 44.0261 62.8177 44.1198 63.6146 44.1198C64.5573 44.1198 65.3229 43.3542 65.3229 42.4115C65.3229 41.4688 64.5573 40.7032 63.6146 40.7032C63.0833 40.7032 62.5521 40.6407 62.0417 40.5157C58.276 39.6146 55.5417 35.5938 55.5417 30.9584C55.5417 25.5886 59.1615 21.2188 63.6146 21.2188C68.0625 21.2188 71.6823 25.5886 71.6823 30.9584C71.6823 33.1875 71.0781 35.2813 69.9271 37.0209C69.6406 37.448 69.3281 37.8542 68.9896 38.2188C68.6094 37.4896 68.1771 36.8021 67.6198 36.2396C66.6563 35.2605 64.9635 34.2969 62.3854 35.2813C61.5052 35.6146 61.0625 36.6042 61.3958 37.4844C61.7344 38.3698 62.7188 38.8125 63.6042 38.474C64.8854 37.9844 65.3229 38.2032 66.7135 41.474C67.2604 42.7605 67.8281 44.0886 68.7135 45.1042C69.6406 46.1667 70.7917 46.7084 72.0833 46.7084C72.4844 46.7084 72.901 46.6563 73.3229 46.5521C74.2396 46.3282 74.8021 45.4011 74.5781 44.4844C74.3542 43.5677 73.4271 43.0052 72.5104 43.2344C71.75 43.4167 71.3021 43.2032 70.4792 41.5157C70.8333 41.2188 71.1667 40.8959 71.4844 40.5573Z" fill="#292F33"/>
</svg>
