<svg width="134" height="110" viewBox="0 0 134 110" fill="none" xmlns="http://www.w3.org/2000/svg">
<path d="M87.3855 42.2188L87.6615 44.8698C88.5365 44.7865 89.448 44.7396 90.3595 44.7396C91.1147 44.7396 91.8959 44.7708 92.672 44.8333L92.8855 42.1719C92.0365 42.1094 91.1876 42.0781 90.3595 42.0781C89.3542 42.0781 88.3542 42.125 87.3855 42.2188Z" fill="#494747"/>
<path d="M76.8906 45.5208L78.2708 47.8177C79.6979 47 81.224 46.3385 82.7917 45.849L81.9635 43.3125C80.1979 43.8594 78.4948 44.6042 76.8906 45.5208Z" fill="#494747"/>
<path d="M40.4167 81.901C42.2136 81.5469 43.9845 81.0417 45.6772 80.4115L44.7032 77.9219C43.1511 78.5052 41.5209 78.9635 39.8699 79.2917L40.4167 81.901Z" fill="#494747"/>
<path d="M68.7031 52.6458L70.849 54.2917C71.9219 52.9583 73.0677 51.75 74.2656 50.6979L72.4375 48.7188C71.125 49.875 69.8698 51.1927 68.7031 52.6458Z" fill="#494747"/>
<path d="M29.7865 79.7864L29.5417 82.4375C30.7605 82.5469 31.9792 82.5989 33.1667 82.5989C33.7761 82.5989 34.3907 82.5885 34.9897 82.5573L34.8595 79.8958C34.3022 79.9219 33.7345 79.9323 33.1667 79.9323C32.0626 79.9323 30.922 79.8854 29.7865 79.7864Z" fill="#494747"/>
<path d="M53.3698 72.9688C52.0521 74.026 50.6615 74.974 49.2344 75.7917L50.6198 78.0885C52.1615 77.2031 53.6719 76.1771 55.099 75.0312L53.3698 72.9688Z" fill="#494747"/>
<path d="M60.2865 65.7239C59.2605 67.0989 58.172 68.3958 57.0574 69.5729L59.0626 71.3854C60.2501 70.1302 61.4063 68.75 62.4949 67.2916L60.2865 65.7239Z" fill="#494747"/>
<path d="M18.9531 80.2761C20.6927 80.8281 22.4479 81.2917 24.1771 81.6459L24.7396 79.0417C23.1094 78.7031 21.4427 78.2656 19.7969 77.7448L18.9531 80.2761Z" fill="#494747"/>
<path d="M107.37 48.8177C108.885 49.4896 110.443 50.25 111.99 51.0781L113.302 48.7396C111.693 47.8802 110.073 47.0885 108.495 46.3906L107.37 48.8177Z" fill="#494747"/>
<path d="M97.6824 45.5781C99.2761 45.9271 100.927 46.3906 102.594 46.9531L103.49 44.4375C101.724 43.8386 99.9688 43.349 98.2761 42.9792L97.6824 45.5781Z" fill="#494747"/>
<mask id="mask0_3_64" style="mask-type:luminance" maskUnits="userSpaceOnUse" x="0" y="18" width="134" height="92">
<path d="M0 18.9323H133.312V109.38H0V18.9323Z" fill="white"/>
</mask>
<g mask="url(#mask0_3_64)">
<path d="M99.151 71.4583L97.6927 71.5521L96.6146 72.5417L78.4531 89.3021L61.5729 38.5156L79.5312 23.1979L104.781 24.1458L118.068 51.4948C118.016 51.4635 117.964 51.4323 117.917 51.401L116.453 53.651C117.771 54.4635 119.083 55.3333 120.365 56.224L126.911 69.6979L99.151 71.4583ZM107.406 20.1146L78.0781 19.0156L58.4792 35.7396L53.6354 34.8854C53.0052 36.1146 52.3125 37.3906 51.5625 38.7083L57.6458 39.7812L64.224 59.5677C63.8542 60.2396 63.474 60.8958 63.0938 61.5365L65.2969 62.7969L74.6146 90.8333L46.4219 89.5469L45.2031 89.4896L44.151 90.1094L21.7708 103.203L13.9948 78.1927L15 75.9583C14.2604 75.6406 13.599 75.3385 13.026 75.0625L4.86979 48.8333L20.1198 38.9844C19.4062 37.7396 18.7448 36.5313 18.1354 35.3594L0 47.0677L19.3698 109.38L46.2344 93.6667L78.2135 95.1302L99.4115 75.5729L133.312 73.4271L107.406 20.1146Z" fill="#494747"/>
</g>
<path d="M25.4375 17.7604C25.4375 12.0573 30.0625 7.4375 35.7604 7.4375C41.4635 7.4375 46.0885 12.0573 46.0885 17.7604C46.0885 23.4635 41.4635 28.0885 35.7604 28.0885C30.0625 28.0885 25.4375 23.4635 25.4375 17.7604ZM54.7083 18.9479C54.7083 8.47917 46.2292 0 35.7604 0C25.2969 0 16.8125 8.47917 16.8125 18.9479C16.8125 31.1667 35.7604 55.0625 35.7604 55.0625C35.7604 55.0625 54.7083 31.1667 54.7083 18.9479Z" fill="#494747"/>
</svg>
