<svg width="200" height="128" viewBox="0 0 200 128" fill="none" xmlns="http://www.w3.org/2000/svg">
<path d="M22.6563 75.4809C22.6563 68.7305 22.6758 61.9763 22.6328 55.2318C22.6328 54.2982 22.9199 54.1123 23.7852 54.1162C30.8457 54.1475 37.9082 54.1867 44.9688 54.1162C52.1738 54.0497 57.9004 51.0552 61.7109 44.8842C68.6055 33.7282 61.8926 19.0493 48.8926 16.6517C47.4806 16.4028 46.0489 16.2835 44.6152 16.2955C32.1836 16.2955 19.752 16.2955 7.31055 16.3308C6.2832 16.3308 6.07617 16.0352 6.09766 15.0743C6.16016 12.1737 6.13672 9.2712 6.09766 6.36869C6.09766 5.7052 6.25977 5.47426 6.96094 5.47621C20.1738 5.50753 33.3887 5.38031 46.5977 5.56429C59.1445 5.74043 70.6953 14.81 74.2012 26.8624C76.1375 33.4456 75.7226 40.4993 73.0278 46.8089C70.333 53.1185 65.527 58.2891 59.4375 61.4302C55.0041 63.7451 50.0773 64.9499 45.0781 64.9414C41.4648 64.9551 37.8516 64.9708 34.2402 64.9258C33.418 64.914 33.2188 65.1567 33.2207 65.9631C33.248 75.8795 33.2546 85.792 33.2402 95.7006C33.2402 96.9336 33.2402 96.9336 31.9668 96.9336C29.2012 96.9336 26.4355 96.9042 23.6699 96.9532C22.8652 96.9669 22.627 96.7574 22.6309 95.9256C22.6563 89.1107 22.6563 82.2958 22.6563 75.4809Z" fill="white"/>
<path d="M120.117 64.4365C119.994 64.4766 119.867 64.5029 119.738 64.5148C115.088 64.4737 110.436 64.6792 105.787 64.4404C90.957 63.683 78.8047 51.7755 77.6797 36.9009C76.7031 24.1283 84.4414 11.9135 96.4023 7.26514C100.102 5.8034 104.046 5.06208 108.023 5.08092C112.055 5.1044 116.088 5.11223 120.119 5.12789C120.119 8.68214 120.114 12.2364 120.104 15.7906C120.097 15.8142 120.095 15.8389 120.099 15.8631C120.102 15.8874 120.11 15.9107 120.123 15.9316C115.631 15.8317 111.148 15.7574 106.668 15.9492C101.795 16.1645 97.5391 18.0414 94.1406 21.5428C88.8965 26.9368 87.2207 33.4014 89.5527 40.5432C91.9434 47.8631 97.248 52.253 104.828 53.4078C109.873 54.1769 115.02 53.6407 120.121 53.6407L120.09 53.6896L120.117 53.7327C120.117 57.3039 120.117 60.8718 120.117 64.4365Z" fill="white"/>
<path d="M120.117 37.5781C124.609 37.445 129.09 37.5056 133.576 37.5487C136.084 37.5916 138.574 37.9761 140.979 38.6917C154.436 42.565 163.277 54.8796 162.658 68.8852C162.107 81.376 152.963 92.5202 140.502 95.8944C138.148 96.5524 135.719 96.8979 133.275 96.9219C128.887 96.9219 124.498 96.9004 120.107 96.8867C120.117 93.3168 120.125 89.7469 120.133 86.177L120.094 86.1006C124.355 86.1006 128.619 86.1378 132.881 86.1163C135.69 86.0926 138.458 85.4329 140.977 84.1865C147.965 80.7908 152.328 73.3417 151.676 65.9103C151.357 61.9978 149.844 58.2784 147.343 55.2571C144.842 52.2357 141.474 50.0588 137.695 49.0217C134.883 48.2389 132.031 48.3406 129.17 48.3289C126.145 48.3152 123.115 48.2858 120.098 48.2643L120.117 37.5781Z" fill="white"/>
<path d="M120.148 80.6988C119.758 80.7203 119.367 80.7614 118.977 80.7614C106.936 80.7614 94.8919 80.7614 82.8438 80.7614C68.3398 80.7484 53.8301 80.7418 39.3145 80.7418C38.3379 80.7418 38.0391 80.5246 38.0664 79.5069C38.1426 76.6729 38.127 73.831 38.0664 70.997C38.0508 70.1163 38.2617 69.8501 39.1855 69.8521C51.9108 69.8834 64.6354 69.8906 77.3594 69.8736C91.2227 69.8736 105.086 69.8795 118.949 69.8912C119.34 69.8912 119.73 69.9264 120.121 69.946C120.129 73.529 120.138 77.1132 120.148 80.6988Z" fill="white"/>
<path d="M120.139 86.1691C120.131 89.739 120.122 93.3089 120.113 96.8788C119.758 96.8965 119.402 96.9317 119.047 96.9317C92.4948 96.9317 65.9427 96.9317 39.3906 96.9317C37.9219 96.9317 38.0996 97.0765 38.0957 95.6204C38.0957 92.7511 38.1191 89.8819 38.0762 87.0087C38.0664 86.2572 38.3105 86.0889 39.0234 86.0889C65.8672 86.1124 92.7116 86.1241 119.557 86.1241C119.75 86.128 119.945 86.1554 120.139 86.1691Z" fill="white"/>
<path d="M6.12891 59.3166C6.12891 47.1585 6.12239 34.9998 6.10937 22.8405C6.10937 21.9597 6.30469 21.6857 7.22461 21.7053C10.1191 21.7679 13.0156 21.7268 15.9102 21.7288C17.1816 21.7288 17.1816 21.7288 17.1816 22.9657C17.1816 39.0682 17.1816 55.1699 17.1816 71.2711C17.1816 79.4912 17.1816 87.6997 17.2012 95.914C17.2012 96.7204 17.0059 96.967 16.1777 96.9533C13.2188 96.9043 10.2559 96.8965 7.29687 96.9533C6.37109 96.9728 6.10156 96.7575 6.10351 95.7789C6.13997 83.6287 6.14844 71.4746 6.12891 59.3166Z" fill="white"/>
<path d="M22.6562 35.2745C22.6562 31.0685 22.6719 26.8586 22.6406 22.6565C22.6406 21.9421 22.8066 21.7092 23.5566 21.7112C30.877 21.7346 38.2051 21.6798 45.5215 21.7229C52.8769 21.764 58.9492 27.8411 58.9766 35.0924C59.0039 42.4612 53.0605 48.5559 45.6719 48.734H45.5742C38.2891 48.7771 31.0039 48.8064 23.7187 48.8847C22.8535 48.8847 22.627 48.6538 22.6348 47.7907C22.6758 43.6199 22.6562 39.4452 22.6562 35.2745ZM39.6602 37.9186C41.5137 37.9186 43.3711 37.9558 45.2227 37.9069C46.8223 37.8658 48.0117 36.6543 47.9922 35.2001C47.9727 33.7459 46.7617 32.5364 45.1797 32.5246C41.4395 32.4953 37.6992 32.5246 33.959 32.5031C33.4062 32.5031 33.2168 32.6851 33.2305 33.237C33.2598 34.5405 33.2656 35.844 33.2305 37.1514C33.2129 37.7386 33.3984 37.9499 34.002 37.9343C35.8867 37.8971 37.7734 37.9186 39.6602 37.9186Z" fill="white"/>
<path d="M120.104 15.7984C120.104 12.2441 120.109 8.68989 120.119 5.13564C120.477 5.11998 120.832 5.09258 121.189 5.09258C144.579 5.09258 167.967 5.08475 191.355 5.06909C192.27 5.06909 192.572 5.24719 192.551 6.22383C192.479 9.416 192.514 12.6121 192.508 15.814C192.117 15.8356 191.727 15.8747 191.336 15.8747C167.977 15.8825 144.617 15.8865 121.258 15.8865C120.877 15.8786 120.49 15.8258 120.104 15.7984Z" fill="white"/>
<path d="M192.525 21.3803C192.525 24.5725 192.496 27.7666 192.545 30.9588C192.559 31.8337 192.35 32.1096 191.432 32.1077C181.316 32.0744 171.203 32.094 161.09 32.0959H121.189C120.834 32.0959 120.479 32.0568 120.123 32.0372L120.105 21.3666C120.461 21.3412 120.816 21.2942 121.172 21.2942C144.569 21.2838 167.967 21.2786 191.365 21.2786C191.752 21.2844 192.139 21.3471 192.525 21.3803Z" fill="white"/>
<path d="M176.088 96.8239C172.639 96.8376 169.191 96.8435 165.736 96.8709C165.225 96.8709 165.018 96.6752 165.064 96.18C165.071 96.0496 165.071 95.919 165.064 95.7886C165.045 78.5458 165.026 61.3043 165.008 44.0641C165.008 42.011 165.043 39.954 165.047 37.9067C165.047 37.439 165.062 37.0926 165.695 37.0965C169.078 37.1239 172.461 37.118 175.852 37.1278C175.948 37.1408 176.042 37.1651 176.133 37.2002C176.133 37.623 176.109 38.0477 176.109 38.4704C176.109 57.4003 176.109 76.3296 176.109 95.2582C176.117 95.7808 176.098 96.3033 176.088 96.8239Z" fill="white"/>
<path d="M181.578 37.1708C185.026 37.1512 188.477 37.1284 191.93 37.1023C192.406 37.1023 192.578 37.298 192.535 37.7443C192.52 37.9067 192.535 38.0711 192.535 38.2335C192.535 57.3748 192.543 76.5161 192.559 95.6574C192.559 96.6517 192.32 96.912 191.328 96.8885C188.107 96.8141 184.883 96.8513 181.664 96.8454C181.645 96.3581 181.611 95.8668 181.611 95.3834C181.596 75.9799 181.585 56.5756 181.578 37.1708Z" fill="white"/>
<path d="M120.148 80.6987C120.139 77.1131 120.13 73.525 120.121 69.9342L130.949 69.8774C131.438 69.8774 131.926 69.8872 132.414 69.8774C134.023 69.8363 135.221 68.7207 135.248 67.245C135.275 65.7693 134.055 64.5343 132.406 64.505C129.967 64.4736 127.523 64.505 125.088 64.4952C123.432 64.4952 121.768 64.6028 120.121 64.4286C120.121 60.8626 120.121 57.296 120.121 53.7287C121.389 53.713 122.66 53.668 123.924 53.6876C127.371 53.7404 130.84 53.3901 134.26 53.8481C139.684 54.5722 143.555 57.5667 145.424 62.718C147.32 67.9516 146.123 72.6997 142.273 76.6826C139.475 79.5772 135.926 80.7594 131.943 80.7594C128.008 80.7594 124.072 80.7848 120.135 80.7966C120.13 80.7803 120.128 80.763 120.131 80.7461C120.133 80.7292 120.139 80.713 120.148 80.6987Z" fill="white"/>
<path d="M120.105 21.3724L120.117 32.043L110.363 32.1056C109.42 32.1056 108.475 32.0665 107.535 32.131C106.88 32.1811 106.266 32.4701 105.809 32.9432C105.352 33.4164 105.083 34.041 105.055 34.6989C105.032 35.3584 105.253 36.0032 105.676 36.509C106.099 37.0149 106.694 37.3461 107.346 37.4389C107.799 37.5004 108.256 37.5272 108.713 37.5192C112.518 37.544 116.322 37.5655 120.125 37.5838L120.113 48.27C120.106 48.2886 120.103 48.3089 120.106 48.3289C120.109 48.3488 120.116 48.3677 120.129 48.3835C116.198 48.3679 112.266 48.3542 108.334 48.3424C107.424 48.3476 106.516 48.2861 105.615 48.1584C99.4141 47.2327 94.3867 41.8328 94.0977 35.7734C93.7734 29.0269 97.9922 23.265 104.371 21.6992C105.638 21.409 106.935 21.2698 108.234 21.2843C112.197 21.2687 116.159 21.2465 120.121 21.2178C120.098 21.2658 120.092 21.3206 120.105 21.3724Z" fill="white"/>
<path d="M192.143 117.228V105.989C192.143 105.383 191.986 104.815 193.014 104.815C193.961 104.815 193.939 105.25 193.938 105.935C193.92 111.248 193.938 116.562 193.91 121.878C193.91 122.234 194.277 122.947 193.471 122.896C192.803 122.855 191.928 123.387 191.563 122.189C190.316 118.079 188.99 113.987 187.695 109.89C187.609 109.624 187.52 109.358 187.396 108.992C187.139 109.444 187.234 109.798 187.232 110.131C187.232 114.11 187.205 118.087 187.248 122.07C187.248 122.878 186.93 122.952 186.271 122.949C185.646 122.949 185.352 122.855 185.357 122.111C185.389 116.631 185.389 111.154 185.357 105.68C185.357 105.056 185.508 104.839 186.172 104.845C187.93 104.858 187.941 104.825 188.475 106.496C189.525 109.783 190.576 113.071 191.627 116.359C191.725 116.66 191.846 116.946 191.955 117.253L192.143 117.228Z" fill="white"/>
<path d="M53.543 117.236C53.543 113.433 53.5625 109.63 53.5254 105.827C53.5254 105.072 53.6973 104.813 54.4863 104.833C55.1836 104.848 55.3477 105.056 55.3418 105.725C55.3105 109.538 55.3281 113.358 55.3281 117.161C55.3281 118.791 55.2988 120.422 55.3418 122.054C55.3574 122.706 55.209 122.923 54.502 122.966C53.5137 123.029 53.123 122.702 52.8359 121.739C51.6465 117.748 50.3477 113.791 49.0879 109.82C49.002 109.548 48.8926 109.278 48.793 108.966C48.5156 109.309 48.6426 109.657 48.6426 109.972C48.6309 113.981 48.6113 117.997 48.6543 121.995C48.6641 122.796 48.4004 122.935 47.6777 122.964C46.832 122.997 46.832 122.586 46.834 121.968C46.8496 116.592 46.8633 111.215 46.8223 105.839C46.8223 104.984 47.0898 104.815 47.8672 104.85C49.75 104.937 49.2852 104.594 49.8379 106.283C50.9082 109.589 51.9531 112.91 53.0137 116.226C53.127 116.58 53.2754 116.922 53.4043 117.271L53.543 117.236Z" fill="white"/>
<path d="M110.963 114.21C112.602 114.865 112.943 116.257 113.029 117.791C113.117 119.381 112.867 120.983 113.225 122.565C113.244 122.649 113.244 122.806 113.207 122.821C112.711 123.033 112.186 122.89 111.672 122.919C111.338 122.939 111.209 122.696 111.168 122.432C111.08 121.951 111.024 121.466 111.002 120.978C110.977 119.903 111.002 118.825 110.982 117.752C110.938 115.981 110.227 115.259 108.467 115.237C106.648 115.214 107.004 115.092 106.984 116.631C106.963 118.457 106.93 120.285 107 122.111C107.035 122.988 106.572 122.96 105.982 122.933C105.459 122.907 104.902 123.115 104.908 122.172C104.949 116.662 104.936 111.153 104.918 105.645C104.918 105.074 105.041 104.827 105.668 104.85C106.969 104.897 108.271 104.833 109.574 104.888C111.561 104.974 112.699 106.033 112.922 108.019C113.005 108.83 113.034 109.645 113.01 110.46C112.969 112.403 112.57 113.12 110.963 114.21ZM106.971 109.978V111.544C106.971 113.542 106.971 113.542 109.008 113.335C110.285 113.204 110.893 112.617 110.961 111.348C111.006 110.442 110.982 109.53 110.961 108.622C110.945 108.021 110.781 107.436 110.264 107.08C109.332 106.44 108.258 106.698 107.236 106.716C106.891 106.716 106.988 107.107 106.986 107.354C106.965 108.227 106.971 109.103 106.971 109.98V109.978Z" fill="white"/>
<path d="M175.195 113.83C175.305 111.912 175.041 109.984 175.346 108.074C175.711 105.79 177.053 104.678 179.369 104.68C181.686 104.682 183.047 105.806 183.424 108.052C183.495 108.437 183.535 108.826 183.543 109.217C183.543 112.348 183.578 115.47 183.543 118.596C183.504 121.672 181.943 123.205 179.051 123.097C177.082 123.031 175.754 121.923 175.391 119.966C175 117.928 175.311 115.875 175.195 113.83ZM181.475 113.945C181.475 112.155 181.537 110.36 181.455 108.571C181.377 106.866 179.893 105.993 178.414 106.702C177.363 107.201 177.26 108.199 177.256 109.201C177.244 112.333 177.256 115.464 177.256 118.584C177.255 118.878 177.278 119.171 177.324 119.461C177.549 120.884 178.641 121.577 180.031 121.197C181.09 120.907 181.449 120.099 181.473 119.126C181.496 117.4 181.467 115.672 181.467 113.945H181.475Z" fill="white"/>
<path d="M73.2773 113.45C71.0625 111.943 70.5918 107.97 72.3281 106.027C72.6216 105.697 72.9778 105.429 73.3758 105.238C73.7739 105.048 74.2059 104.938 74.6465 104.917C75.748 104.847 76.8555 104.884 77.9668 104.858C78.7832 104.841 78.4668 105.445 78.498 105.837C78.5293 106.228 78.6582 106.72 77.9414 106.688C77.1309 106.651 76.3164 106.655 75.5059 106.688C74.1836 106.747 73.5527 107.33 73.3574 108.624C73.3187 108.914 73.3004 109.206 73.3027 109.499C73.2754 112.092 74.4434 113.051 76.9902 112.589C77.5762 112.483 77.3945 112.096 77.4062 111.783C77.4492 110.642 77.9922 110.264 79.1055 110.581C79.5293 110.7 79.4023 111.012 79.4434 111.28C79.5273 111.806 79.1133 112.517 80.1289 112.683C80.5449 112.75 80.3242 114.284 79.8437 114.421C79.5059 114.517 79.4355 114.679 79.4531 114.963C79.5352 117.465 79.248 119.978 79.6367 122.467C79.6973 122.843 79.6055 122.894 79.2832 122.935C78.084 123.088 77.8359 122.96 77.3086 121.782C76.6016 122.635 75.7461 123.131 74.6211 123.119C72.9902 123.103 71.9375 122.389 71.5625 120.805C71.1756 119.117 71.1642 117.365 71.5293 115.672C71.7051 114.695 72.3105 113.981 73.2773 113.45ZM77.3633 117.224H77.3965V116.347C77.3965 114.225 77.3965 114.229 75.2598 114.452C74.3105 114.552 73.666 115.049 73.457 115.971C73.169 117.245 73.163 118.566 73.4394 119.843C73.6543 120.839 74.416 121.342 75.4629 121.287C76.5469 121.232 77.2676 120.616 77.3516 119.565C77.4141 118.79 77.3633 118.005 77.3633 117.224Z" fill="white"/>
<path d="M57.2441 114.327C57.2441 112.133 57.1973 110.469 57.2441 108.808C57.3535 105.637 59.7168 103.97 62.7441 104.862C64.2402 105.304 64.9434 106.412 65.2246 107.839C65.3496 108.473 65.3027 109.139 65.3926 109.782C65.5098 110.63 65.1367 110.8 64.3574 110.798C63.623 110.798 63.3809 110.593 63.4414 109.859C63.5146 109.242 63.4709 108.616 63.3125 108.015C63.0156 106.984 62.3809 106.49 61.3223 106.5C60.2637 106.51 59.6289 107.033 59.375 108.056C59.356 108.12 59.3429 108.186 59.3359 108.252C59.1738 112.029 59.1133 115.809 59.3691 119.58C59.4492 120.754 60.2637 121.3 61.375 121.293C62.4863 121.285 63.1328 120.778 63.3496 119.647C63.625 118.261 63.4336 116.852 63.4629 115.452C63.4629 114.912 63.0195 115.092 62.7363 115.081C61.5644 115.03 61.418 114.848 61.5859 113.72C61.6348 113.393 61.7617 113.256 62.0762 113.268C62.1406 113.268 62.2051 113.268 62.2715 113.268C63.2734 113.313 64.5488 112.863 65.2012 113.44C65.8535 114.018 65.3789 115.288 65.3965 116.255C65.4102 117.429 65.4941 118.603 65.291 119.768C64.9004 121.972 63.6087 123.087 61.416 123.115C59.1191 123.14 57.7637 122.101 57.3828 119.854C57.0312 117.848 57.3223 115.814 57.2441 114.327Z" fill="white"/>
<path d="M155.445 104.86C156.973 104.86 156.975 104.86 157.252 106.301C158.26 111.54 159.273 116.779 160.262 122.023C160.314 122.308 160.701 122.935 159.996 122.888C159.438 122.849 158.564 123.463 158.32 122.365C158.145 121.573 157.971 120.774 157.855 119.972C157.787 119.498 157.621 119.296 157.117 119.31C155.98 119.341 154.842 119.332 153.705 119.31C153.314 119.31 153.119 119.428 153.063 119.84C152.93 120.674 152.723 121.496 152.578 122.33C152.383 123.43 151.543 122.87 151.016 122.886C150.273 122.907 150.738 122.289 150.789 122.025C151.809 116.523 152.875 111.031 153.9 105.53C154.119 104.381 154.979 105.068 155.445 104.86ZM155.482 107.62L155.313 107.655C154.727 110.687 154.162 113.722 153.555 116.748C153.426 117.4 153.584 117.627 154.262 117.584C155.073 117.537 155.886 117.537 156.697 117.584C157.373 117.621 157.428 117.365 157.283 116.776C157.002 115.574 156.813 114.351 156.574 113.139C156.223 111.297 155.859 109.46 155.482 107.62Z" fill="white"/>
<path d="M85.7109 113.818C85.7109 112.092 85.6582 110.364 85.7227 108.639C85.8242 105.986 87.3535 104.604 89.9961 104.674C92.1074 104.731 93.4824 106.003 93.7383 108.168C93.7988 108.683 93.7383 109.213 93.8086 109.734C93.9238 110.608 93.6348 110.925 92.7109 110.882C91.9961 110.847 91.8281 110.606 91.8691 109.959C91.8997 109.406 91.8775 108.851 91.8027 108.303C91.6504 107.15 90.9668 106.541 89.8652 106.498C88.7637 106.455 88.0371 107.021 87.7754 108.144C87.718 108.401 87.6905 108.664 87.6934 108.927C87.6934 112.254 87.6738 115.572 87.6934 118.895C87.7031 120.345 88.3301 121.134 89.4902 121.281C90.7109 121.438 91.6387 120.799 91.7832 119.572C91.8744 118.698 91.9032 117.818 91.8691 116.94C91.8555 116.094 92.4551 116.337 92.8887 116.323C93.3223 116.31 93.8477 116.163 93.8047 116.934C93.7559 117.811 93.8223 118.695 93.7363 119.57C93.5078 121.895 92.0508 123.136 89.6562 123.119C87.3672 123.103 85.8887 121.805 85.75 119.498C85.6406 117.615 85.7266 115.723 85.7266 113.834L85.7109 113.818Z" fill="white"/>
<path d="M27.6523 123.111C24.8652 123.111 22.8789 120.584 23.6152 117.93C23.8105 117.233 24.4395 117.682 24.8594 117.584C25.2324 117.498 25.4609 117.643 25.4629 118.101C25.4565 118.654 25.5062 119.207 25.6113 119.75C25.8184 120.729 26.4824 121.246 27.4824 121.289C28.5391 121.334 29.2402 120.858 29.5332 119.852C29.7144 119.292 29.7557 118.696 29.6535 118.115C29.5514 117.535 29.3089 116.989 28.9473 116.525C28.1777 115.49 27.1426 114.744 26.1738 113.928C24.1328 112.209 23.1621 110.117 23.8789 107.432C24.4531 105.279 26.418 104.224 28.8027 104.776C30.6641 105.207 32.0312 107.359 31.6875 109.287C31.582 109.874 31.1641 109.704 30.8672 109.679C30.4766 109.642 29.8906 109.998 29.7656 109.272C29.7148 108.984 29.7441 108.684 29.709 108.393C29.5664 107.168 28.8965 106.522 27.7559 106.502C26.6152 106.483 25.9824 107.038 25.7402 108.213C25.4785 109.487 25.8086 110.593 26.6445 111.573C27.4121 112.474 28.3652 113.161 29.2559 113.922C30.9355 115.357 31.9199 117.067 31.6816 119.384C31.4453 121.774 30.0508 123.109 27.6523 123.111Z" fill="white"/>
<path d="M141.174 113.818C141.174 112.123 141.127 110.428 141.184 108.73C141.273 106.027 142.822 104.6 145.48 104.68C147.566 104.741 148.91 105.966 149.191 108.097C149.264 108.645 149.191 109.211 149.279 109.755C149.414 110.683 149.027 110.93 148.152 110.871C147.582 110.832 147.334 110.726 147.371 110.098C147.401 109.447 147.361 108.795 147.252 108.152C147.074 107.09 146.43 106.555 145.385 106.498C144.305 106.438 143.6 106.937 143.299 108.009C143.209 108.322 143.162 108.645 143.16 108.97C143.15 112.262 143.141 115.554 143.16 118.846C143.16 120.265 143.746 121.052 144.836 121.252C146.09 121.485 147.021 120.86 147.27 119.598C147.415 118.761 147.45 117.909 147.371 117.063C147.318 116.325 147.703 116.263 148.258 116.3C148.746 116.333 149.354 116.124 149.283 117.014C149.223 117.797 149.283 118.58 149.227 119.363C149.043 121.796 147.629 123.107 145.232 123.111C142.836 123.115 141.352 121.802 141.217 119.392C141.113 117.541 141.197 115.674 141.197 113.82L141.174 113.818Z" fill="white"/>
<path d="M14.5605 113.9C14.5605 111.196 14.5801 108.493 14.5449 105.79C14.5449 105.099 14.666 104.811 15.4434 104.841C17.3262 104.903 19.2129 104.89 21.1074 104.841C21.8047 104.825 22.0625 104.97 22.0703 105.741C22.0703 106.551 21.7949 106.72 21.0625 106.686C19.8301 106.633 18.5937 106.686 17.3516 106.665C16.8496 106.653 16.5703 106.733 16.5898 107.342C16.627 108.968 16.6191 110.599 16.5898 112.235C16.5801 112.767 16.7969 112.902 17.2832 112.887C18.1934 112.859 19.1074 112.92 20.0176 112.867C20.7422 112.824 21.0156 112.994 21.0332 113.807C21.0508 114.709 20.6191 114.715 19.9727 114.691C19.0957 114.66 18.2148 114.707 17.3398 114.676C16.8281 114.658 16.5762 114.756 16.5898 115.357C16.6276 117.053 16.6276 118.749 16.5898 120.445C16.5781 121.032 16.8262 121.144 17.3418 121.134C18.6738 121.107 20.0098 121.168 21.3398 121.109C22.1406 121.076 22.0254 121.557 22.0371 122.046C22.0508 122.571 22.0723 122.978 21.3066 122.956C19.3262 122.905 17.3418 122.909 15.3594 122.956C14.6875 122.972 14.5469 122.733 14.5527 122.121C14.5742 119.373 14.5605 116.637 14.5605 113.9Z" fill="white"/>
<path d="M95.6563 113.897C95.6563 111.157 95.6719 108.416 95.6445 105.676C95.6445 105.066 95.7715 104.823 96.4414 104.839C98.3945 104.884 100.348 104.892 102.301 104.839C103.082 104.815 103.107 105.177 103.117 105.774C103.129 106.404 103.029 106.725 102.283 106.688C100.984 106.628 99.6816 106.688 98.377 106.661C97.8301 106.647 97.6387 106.814 97.6504 107.375C97.6816 108.972 97.6816 110.569 97.6504 112.166C97.6387 112.734 97.8457 112.902 98.3828 112.881C99.3242 112.846 100.273 112.926 101.211 112.855C101.992 112.797 102.125 113.106 102.121 113.805C102.121 114.466 101.969 114.736 101.258 114.691C100.281 114.631 99.3047 114.691 98.3281 114.668C97.8359 114.652 97.6387 114.783 97.6484 115.318C97.6784 117.014 97.6784 118.71 97.6484 120.406C97.6484 120.962 97.8184 121.138 98.3711 121.124C99.7031 121.091 101.041 121.158 102.371 121.097C103.143 121.062 103.109 121.489 103.1 122.007C103.09 122.526 103.189 122.964 102.396 122.945C100.414 122.896 98.4277 122.902 96.4453 122.945C95.7832 122.96 95.6367 122.731 95.6426 122.113C95.6738 119.373 95.6563 116.635 95.6563 113.897Z" fill="white"/>
<path d="M128.477 113.902C128.477 111.2 128.51 108.497 128.457 105.796C128.441 104.999 128.693 104.817 129.434 104.845C131.252 104.896 133.074 104.903 134.893 104.845C135.721 104.817 135.656 105.267 135.674 105.823C135.691 106.379 135.65 106.743 134.914 106.704C133.715 106.639 132.508 106.716 131.307 106.673C130.691 106.651 130.449 106.806 130.467 107.475C130.514 109.135 130.518 110.802 130.467 112.456C130.445 113.18 130.721 113.341 131.369 113.304C132.18 113.255 132.998 113.339 133.805 113.278C134.535 113.223 134.666 113.544 134.648 114.184C134.631 114.771 134.637 115.194 133.844 115.126C133.051 115.057 132.217 115.153 131.408 115.096C130.699 115.045 130.445 115.241 130.465 116.003C130.52 118.02 130.432 120.042 130.508 122.058C130.543 122.96 130.102 122.933 129.459 122.956C128.744 122.984 128.443 122.845 128.461 122.021C128.516 119.308 128.477 116.605 128.477 113.902Z" fill="white"/>
<path d="M7.83789 114.673C7.83789 112.266 7.82226 109.857 7.84961 107.448C7.84961 106.87 7.71484 106.616 7.09375 106.665C6.47266 106.714 5.85351 106.622 5.24414 106.688C4.38281 106.782 4.53125 106.222 4.5 105.71C4.46679 105.136 4.55469 104.829 5.26562 104.843C7.66797 104.888 10.0723 104.893 12.4766 104.843C13.2812 104.825 13.1855 105.275 13.1816 105.768C13.1777 106.261 13.3066 106.747 12.4844 106.698C11.6621 106.649 10.5312 106.318 10.0449 106.833C9.45898 107.434 9.86328 108.569 9.84961 109.469C9.82617 113.667 9.8164 117.868 9.85937 122.066C9.85937 122.858 9.57031 122.992 8.90039 122.941C8.31445 122.9 7.77343 123.08 7.80273 122.097C7.88867 119.623 7.83789 117.145 7.83789 114.673Z" fill="white"/>
<path d="M38.0859 114.81C38.0859 117.222 38.0371 119.635 38.1113 122.052C38.1387 122.952 37.7207 122.927 37.0723 122.954C36.3516 122.984 36.0644 122.831 36.0723 122.011C36.1152 117.22 36.0723 112.421 36.1113 107.639C36.1113 106.856 35.916 106.577 35.1348 106.674C34.6796 106.705 34.2231 106.708 33.7676 106.684C32.8555 106.684 32.4199 105.97 32.7793 105.109C32.8828 104.864 33.0605 104.872 33.248 104.872C35.7871 104.872 38.3262 104.872 40.8652 104.872C41.6816 104.872 41.3652 105.459 41.3965 105.85C41.4277 106.242 41.5547 106.739 40.8379 106.698C40.1894 106.663 39.5332 106.733 38.8848 106.68C38.2363 106.627 38.0605 106.851 38.0684 107.493C38.1152 109.921 38.0859 112.366 38.0859 114.81Z" fill="white"/>
<path d="M117.725 114.715C117.725 112.301 117.703 109.888 117.738 107.473C117.748 106.821 117.543 106.598 116.908 106.665C116.424 106.714 115.932 106.62 115.445 106.686C114.588 106.804 114.297 106.506 114.371 105.629C114.418 105.068 114.506 104.835 115.133 104.846C117.541 104.882 119.951 104.895 122.359 104.846C123.187 104.829 123.037 105.31 123.045 105.784C123.053 106.258 123.148 106.751 122.342 106.704C121.535 106.657 120.389 106.312 119.9 106.837C119.336 107.438 119.727 108.573 119.723 109.473C119.701 113.646 119.682 117.821 119.738 121.999C119.75 122.921 119.357 122.929 118.652 122.964C117.834 123.005 117.699 122.688 117.711 121.964C117.75 119.541 117.725 117.128 117.725 114.715Z" fill="white"/>
<path d="M164.633 114.779C164.633 112.335 164.617 109.886 164.645 107.448C164.645 106.872 164.525 106.61 163.895 106.665C163.264 106.72 162.654 106.624 162.043 106.688C161.186 106.78 161.33 106.222 161.297 105.71C161.258 105.123 161.375 104.835 162.078 104.847C164.451 104.89 166.826 104.899 169.197 104.847C170.033 104.827 169.949 105.277 169.957 105.825C169.965 106.373 169.957 106.823 169.211 106.69C169.081 106.679 168.95 106.679 168.82 106.69C166.623 106.69 166.623 106.69 166.623 108.941C166.623 113.307 166.598 117.674 166.646 122.038C166.646 122.9 166.301 122.952 165.623 122.962C164.945 122.972 164.596 122.861 164.617 122.025C164.674 119.602 164.633 117.191 164.633 114.779Z" fill="white"/>
<path d="M171.301 113.795C171.301 111.094 171.338 108.391 171.279 105.69C171.26 104.837 171.67 104.829 172.279 104.854C172.865 104.876 173.391 104.71 173.383 105.692C173.332 111.162 173.332 116.631 173.383 122.101C173.383 123.08 172.85 122.907 172.275 122.935C171.664 122.964 171.26 122.947 171.277 122.097C171.336 119.33 171.301 116.558 171.301 113.795Z" fill="white"/>
<path d="M44.7832 113.998C44.7832 116.703 44.7441 119.406 44.8047 122.109C44.8242 122.976 44.3906 122.954 43.7969 122.933C43.2539 122.913 42.75 123.062 42.7559 122.15C42.8014 116.646 42.8014 111.142 42.7559 105.637C42.7559 104.704 43.2773 104.891 43.8086 104.854C44.4238 104.817 44.8203 104.845 44.8027 105.694C44.7461 108.461 44.7832 111.231 44.7832 113.998Z" fill="white"/>
<path d="M126.398 113.992C126.398 116.664 126.363 119.335 126.42 122.005C126.437 122.819 126.152 122.984 125.426 122.946C124.791 122.917 124.365 122.962 124.373 122.052C124.423 116.614 124.423 111.175 124.373 105.735C124.373 104.825 124.793 104.872 125.428 104.842C126.154 104.807 126.436 104.974 126.42 105.786C126.367 108.52 126.398 111.256 126.398 113.992Z" fill="white"/>
<path d="M139.258 113.891C139.258 116.594 139.223 119.298 139.279 121.999C139.297 122.817 139.006 122.978 138.281 122.947C137.645 122.921 137.225 122.964 137.234 122.056C137.284 116.619 137.284 111.181 137.234 105.741C137.234 104.85 137.625 104.86 138.273 104.843C138.982 104.823 139.299 104.948 139.279 105.782C139.223 108.483 139.258 111.188 139.258 113.891Z" fill="white"/>
</svg>
