<svg width="200" height="128" viewBox="0 0 200 128" fill="none" xmlns="http://www.w3.org/2000/svg">
<g clip-path="url(#clip0_79_1949)">
<path d="M99.9023 127.982C66.901 127.982 33.8991 127.988 0.896484 128C0.164062 128 0 127.836 0 127.102C0.0195312 85.0339 0.0195312 42.9668 0 0.900304C0 0.166359 0.164062 0 0.896484 0C66.9655 0.0195719 133.035 0.0195719 199.104 0C199.834 0 200 0.166359 200 0.900304C199.979 42.9668 199.979 85.0339 200 127.102C200 127.836 199.836 128.002 199.104 128C166.037 127.98 132.97 127.975 99.9023 127.982ZM120.127 80.8142L120.1 86.0986L120.139 86.1749C119.943 86.1612 119.748 86.1338 119.553 86.1338C92.7155 86.1221 65.8724 86.1084 39.0234 86.0927C38.3105 86.0927 38.0664 86.261 38.0762 87.0126C38.1191 89.8818 38.0879 92.7511 38.0957 95.6242C38.0957 97.0804 37.9219 96.9355 39.3906 96.9355C65.944 96.9355 92.4961 96.9355 119.047 96.9355C119.402 96.9355 119.758 96.9003 120.113 96.8827C124.504 96.8964 128.893 96.9258 133.281 96.9179C135.725 96.8939 138.154 96.5484 140.508 95.8904C152.969 92.524 162.113 81.3798 162.664 68.8812C163.279 54.8756 154.438 42.561 140.984 38.6877C138.58 37.9721 136.09 37.5876 133.582 37.5447C129.09 37.5017 124.609 37.441 120.123 37.5741C116.318 37.5519 112.514 37.5304 108.711 37.5095C108.254 37.5175 107.797 37.4907 107.344 37.4292C106.692 37.3364 106.097 37.0052 105.674 36.4993C105.251 35.9935 105.03 35.3487 105.053 34.6892C105.082 34.0303 105.351 33.405 105.809 32.9317C106.267 32.4584 106.883 32.1701 107.539 32.1213C108.479 32.0568 109.424 32.1018 110.367 32.0959L120.117 32.0431C120.473 32.0626 120.828 32.1018 121.184 32.1018H161.084C171.197 32.1018 181.311 32.0802 191.426 32.1135C192.35 32.1135 192.553 31.8395 192.539 30.9646C192.49 27.7725 192.52 24.5783 192.52 21.3862L192.502 15.8121C192.502 12.618 192.473 9.4219 192.545 6.22189C192.566 5.2433 192.264 5.06716 191.35 5.06716C167.962 5.09456 144.573 5.10238 121.184 5.09064C120.826 5.09064 120.471 5.11804 120.113 5.1337C116.082 5.11804 112.049 5.11021 108.018 5.08673C104.041 5.06789 100.096 5.80921 96.3965 7.27095C84.4414 11.9212 76.7109 24.136 77.6797 36.9008C78.8047 51.7598 90.9609 63.6751 105.791 64.4325C110.439 64.6713 115.092 64.4658 119.742 64.5069C119.871 64.495 119.998 64.4687 120.121 64.4286C121.773 64.6028 123.441 64.4873 125.088 64.4952C127.527 64.5069 129.971 64.4736 132.406 64.505C134.055 64.5265 135.277 65.738 135.248 67.245C135.219 68.7521 134.023 69.8363 132.422 69.8774C131.934 69.8911 131.445 69.8774 130.957 69.8774L120.117 69.9381C119.727 69.9185 119.336 69.8833 118.945 69.8833C105.082 69.8755 91.2188 69.8696 77.3555 69.8657C64.6302 69.8657 51.9056 69.8585 39.1816 69.8442C38.2637 69.8442 38.0469 70.1084 38.0625 70.9891C38.1172 73.8251 38.1328 76.665 38.0625 79.499C38.0352 80.5167 38.3359 80.7359 39.3105 80.7339C53.8249 80.7196 68.3392 80.7287 82.8535 80.7614C94.8952 80.7692 106.939 80.7692 118.986 80.7614C119.377 80.7614 119.768 80.7202 120.158 80.6987C120.145 80.7123 120.135 80.7291 120.129 80.7476C120.124 80.766 120.123 80.7856 120.127 80.8044V80.8142ZM181.65 96.8631C184.871 96.8631 188.096 96.8318 191.314 96.9062C192.307 96.9297 192.547 96.6694 192.545 95.6751C192.514 76.5338 192.506 57.3925 192.521 38.2513C192.521 38.0888 192.508 37.9244 192.521 37.762C192.578 37.2922 192.398 37.0965 191.922 37.0965C188.474 37.1278 185.023 37.1507 181.57 37.165L176.127 37.1963C176.036 37.1613 175.942 37.137 175.846 37.1239C172.463 37.1239 169.08 37.1239 165.689 37.0926C165.057 37.0926 165.041 37.4351 165.041 37.9029C165.041 39.956 165 42.013 165.002 44.0602C165.018 61.3017 165.036 78.5432 165.059 95.7847C165.065 95.9151 165.065 96.0458 165.059 96.1761C165.012 96.6752 165.219 96.8709 165.73 96.867C169.178 96.8396 172.625 96.8338 176.082 96.8201L181.65 96.8631ZM22.6562 75.4809C22.6562 82.2958 22.6699 89.1107 22.6367 95.9256C22.6367 96.7516 22.8711 96.9669 23.6758 96.9532C26.4414 96.9042 29.207 96.9336 31.9727 96.9336C33.2441 96.9336 33.2441 96.9336 33.2461 95.7005C33.2461 85.7841 33.2396 75.8716 33.2266 65.9631C33.2266 65.1567 33.4219 64.914 34.2461 64.9258C37.8594 64.9708 41.4727 64.9551 45.084 64.9414C50.0831 64.9499 55.01 63.7451 59.4434 61.4302C65.535 58.291 70.3435 53.1212 73.0405 46.8115C75.7375 40.5017 76.1542 33.4469 74.2188 26.8624C70.7148 14.81 59.1641 5.74043 46.6172 5.56428C33.4082 5.3803 20.1934 5.50752 6.98047 5.47621C6.2793 5.47621 6.10938 5.7052 6.11719 6.36868C6.14649 9.27119 6.16992 12.1737 6.11719 15.0743C6.0957 16.0352 6.30273 16.3327 7.33008 16.3308C19.7617 16.2877 32.1934 16.3034 44.6348 16.2955C46.0666 16.2852 47.4963 16.4057 48.9062 16.6557C61.8867 19.0513 68.5996 33.7262 61.7051 44.8881C57.8945 51.0591 52.168 54.0536 44.9629 54.124C37.9023 54.1906 30.8398 54.1514 23.7793 54.124C22.9141 54.124 22.6211 54.3061 22.627 55.2396C22.6699 61.9821 22.6562 68.7305 22.6562 75.4809ZM6.13477 59.3165C6.13477 71.4745 6.12695 83.6325 6.11133 95.7906C6.11133 96.7555 6.37891 96.9766 7.30469 96.9649C10.2637 96.9042 13.2266 96.912 16.1855 96.9649C17.0078 96.9786 17.2109 96.732 17.209 95.9256C17.1797 87.7054 17.1914 79.497 17.1895 71.2827C17.1895 55.1803 17.1895 39.0785 17.1895 22.9774C17.1895 21.7404 17.1895 21.7404 15.918 21.7404C13.0234 21.7404 10.127 21.7796 7.23242 21.7169C6.32031 21.6974 6.11524 21.9714 6.11719 22.8521C6.14193 35.0023 6.14583 47.1571 6.12891 59.3165H6.13477ZM22.6562 35.2744C22.6562 39.4471 22.6816 43.6198 22.6348 47.8004C22.6348 48.6635 22.8535 48.9023 23.7188 48.8944C31.0039 48.8161 38.2891 48.7868 45.5742 48.7437H45.6719C53.0605 48.5656 59.0039 42.4807 58.9766 35.1021C58.9434 27.841 52.8711 21.7639 45.5078 21.7228C38.1855 21.6798 30.8594 21.7346 23.543 21.7111C22.793 21.7111 22.6211 21.942 22.627 22.6564C22.666 26.8604 22.6562 31.0684 22.6562 35.2744ZM192.148 117.228L191.967 117.251C191.857 116.952 191.736 116.664 191.639 116.357C190.587 113.069 189.536 109.781 188.486 106.494C187.953 104.823 187.951 104.856 186.184 104.843C185.52 104.843 185.367 105.054 185.369 105.678C185.39 111.158 185.39 116.635 185.369 122.109C185.369 122.853 185.658 122.945 186.283 122.947C186.939 122.947 187.26 122.876 187.26 122.068C187.217 118.091 187.236 114.114 187.244 110.129C187.244 109.796 187.15 109.442 187.408 108.99C187.531 109.356 187.621 109.622 187.707 109.888C189.002 113.985 190.328 118.073 191.574 122.187C191.939 123.385 192.814 122.853 193.482 122.894C194.289 122.945 193.92 122.232 193.922 121.876C193.947 116.56 193.922 111.246 193.949 105.933C193.949 105.248 193.973 104.819 193.025 104.813C191.998 104.813 192.152 105.379 192.154 105.988L192.148 117.228ZM53.5488 117.228L53.4121 117.263C53.2812 116.915 53.1328 116.572 53.0215 116.218C51.9531 112.91 50.9082 109.589 49.8281 106.277C49.2754 104.588 49.7402 104.931 47.8574 104.845C47.0762 104.809 46.8047 104.978 46.8125 105.833C46.8535 111.209 46.8398 116.586 46.8242 121.962C46.8242 122.581 46.8242 122.992 47.668 122.958C48.4004 122.929 48.6641 122.79 48.6445 121.989C48.6016 117.983 48.6211 113.975 48.6328 109.966C48.6328 109.651 48.5059 109.303 48.7832 108.96C48.8906 109.272 48.9922 109.548 49.0781 109.814C50.3379 113.785 51.6367 117.742 52.8262 121.733C53.125 122.696 53.5156 123.017 54.5019 122.96C55.209 122.917 55.3574 122.7 55.3418 122.048C55.2988 120.422 55.3281 118.791 55.3281 117.155C55.3281 113.345 55.3105 109.532 55.3418 105.719C55.3418 105.05 55.1836 104.843 54.4863 104.827C53.7051 104.807 53.5098 105.066 53.5254 105.821C53.5625 109.63 53.543 113.427 53.543 117.235L53.5488 117.228ZM110.971 114.204C112.578 113.112 112.977 112.395 113.006 110.448C113.03 109.633 113.001 108.818 112.918 108.007C112.686 106.023 111.551 104.964 109.57 104.876C108.271 104.821 106.969 104.886 105.664 104.839C105.037 104.815 104.912 105.062 104.914 105.633C104.932 111.141 104.945 116.65 104.904 122.16C104.904 123.103 105.455 122.896 105.979 122.921C106.564 122.949 107.031 122.976 106.996 122.099C106.926 120.277 106.959 118.449 106.98 116.619C107 115.081 106.645 115.202 108.463 115.225C110.221 115.247 110.934 115.969 110.979 117.74C111.004 118.815 110.979 119.893 110.998 120.966C111.02 121.454 111.076 121.94 111.164 122.42C111.205 122.684 111.334 122.927 111.668 122.907C112.182 122.878 112.707 123.021 113.203 122.81C113.24 122.794 113.24 122.637 113.221 122.553C112.871 120.972 113.121 119.369 113.025 117.78C112.943 116.259 112.602 114.867 110.963 114.21L110.971 114.204ZM175.195 113.83C175.318 115.875 175 117.94 175.391 119.972C175.754 121.929 177.082 123.04 179.051 123.103C181.943 123.201 183.504 121.669 183.543 118.602C183.582 115.47 183.555 112.339 183.543 109.223C183.535 108.832 183.495 108.443 183.424 108.058C183.047 105.811 181.688 104.686 179.369 104.686C177.051 104.686 175.711 105.796 175.346 108.08C175.033 109.984 175.297 111.912 175.195 113.83ZM73.2852 113.45C72.3086 113.981 71.7129 114.695 71.5137 115.67C71.1486 117.363 71.16 119.115 71.5469 120.803C71.9219 122.387 72.9746 123.101 74.6055 123.117C75.7305 123.129 76.5859 122.633 77.293 121.78C77.8203 122.954 78.0742 123.086 79.2676 122.933C79.5898 122.892 79.6816 122.841 79.6211 122.465C79.2305 119.976 79.5195 117.463 79.4375 114.961C79.4277 114.677 79.498 114.515 79.8281 114.419C80.3105 114.282 80.5293 112.748 80.1133 112.681C79.0977 112.515 79.5117 111.804 79.4277 111.278C79.3867 111.01 79.5137 110.691 79.0898 110.579C77.9766 110.262 77.4336 110.64 77.3906 111.781C77.3789 112.094 77.5547 112.481 76.9746 112.587C74.4355 113.049 73.2637 112.09 73.2871 109.497C73.2848 109.204 73.303 108.912 73.3418 108.622C73.5371 107.328 74.1758 106.745 75.4902 106.686C76.3008 106.651 77.1152 106.647 77.9258 106.686C78.6426 106.718 78.5117 106.224 78.4824 105.835C78.4531 105.445 78.7676 104.843 77.9512 104.856C76.8477 104.882 75.7402 104.845 74.6309 104.915C74.1902 104.936 73.7583 105.046 73.3602 105.236C72.9622 105.427 72.606 105.695 72.3125 106.025C70.5918 107.964 71.0625 111.943 73.2773 113.45H73.2852ZM57.2441 114.327C57.3223 115.815 57.0313 117.85 57.3691 119.85C57.7598 122.097 59.1055 123.136 61.4023 123.111C63.6003 123.087 64.8919 121.972 65.2773 119.764C65.4727 118.59 65.3965 117.416 65.3828 116.251C65.3711 115.284 65.8203 113.988 65.1875 113.437C64.5547 112.885 63.2598 113.309 62.2578 113.264C62.1914 113.264 62.127 113.264 62.0625 113.264C61.748 113.253 61.6211 113.39 61.5723 113.716C61.4043 114.844 61.5508 115.026 62.7227 115.077C63.0059 115.088 63.459 114.908 63.4492 115.449C63.4199 116.848 63.6113 118.257 63.3359 119.643C63.1094 120.774 62.4531 121.283 61.3613 121.289C60.2695 121.295 59.4355 120.743 59.3555 119.576C59.0996 115.805 59.1602 112.025 59.3223 108.248C59.3292 108.182 59.3423 108.116 59.3613 108.052C59.623 107.029 60.2793 106.508 61.3262 106.496C62.373 106.485 63.0195 106.98 63.3164 108.011C63.4748 108.612 63.5185 109.238 63.4453 109.855C63.377 110.589 63.627 110.79 64.3613 110.794C65.1426 110.794 65.5137 110.626 65.3965 109.779C65.3066 109.135 65.3535 108.469 65.2285 107.835C64.9473 106.408 64.252 105.301 62.748 104.858C59.7207 103.966 57.3574 105.641 57.248 108.804C57.1973 110.469 57.2441 112.133 57.2441 114.327ZM155.445 104.86C154.979 105.068 154.119 104.381 153.904 105.533C152.879 111.035 151.812 116.527 150.793 122.029C150.742 122.293 150.277 122.911 151.02 122.89C151.543 122.874 152.387 123.434 152.582 122.334C152.727 121.5 152.934 120.678 153.066 119.844C153.131 119.431 153.316 119.308 153.709 119.314C154.846 119.332 155.984 119.341 157.121 119.314C157.625 119.3 157.791 119.51 157.859 119.976C157.975 120.778 158.148 121.577 158.324 122.369C158.568 123.467 159.441 122.853 160 122.892C160.705 122.939 160.318 122.305 160.266 122.027C159.277 116.783 158.264 111.544 157.256 106.305C156.975 104.86 156.973 104.86 155.445 104.86ZM85.7109 113.818H85.7422C85.7422 115.707 85.6562 117.6 85.7656 119.482C85.8984 121.79 87.377 123.087 89.6719 123.103C92.0664 123.121 93.5234 121.88 93.752 119.555C93.8379 118.682 93.7715 117.793 93.8203 116.918C93.8633 116.147 93.332 116.294 92.9043 116.308C92.4766 116.321 91.8711 116.079 91.8848 116.924C91.9188 117.803 91.8901 118.682 91.7988 119.557C91.6445 120.784 90.7266 121.422 89.5059 121.265C88.3457 121.119 87.7188 120.33 87.709 118.88C87.6875 115.552 87.709 112.235 87.709 108.912C87.7061 108.648 87.7336 108.386 87.791 108.129C88.0527 107.005 88.7676 106.446 89.8809 106.483C90.9941 106.52 91.666 107.134 91.8184 108.287C91.8931 108.836 91.9154 109.39 91.8848 109.943C91.8438 110.591 92.0117 110.832 92.7266 110.867C93.6504 110.91 93.9395 110.593 93.8242 109.718C93.7559 109.203 93.8145 108.673 93.7539 108.152C93.4981 105.988 92.123 104.715 90.0117 104.659C87.3691 104.588 85.8398 105.97 85.7383 108.624C85.6582 110.372 85.7109 112.1 85.7109 113.818ZM27.6523 123.111C30.0508 123.111 31.4355 121.774 31.6816 119.381C31.9199 117.063 30.9355 115.353 29.2559 113.918C28.3652 113.159 27.4121 112.472 26.6445 111.569C25.8086 110.591 25.4727 109.483 25.7402 108.209C25.9824 107.035 26.6309 106.479 27.7559 106.498C28.8809 106.518 29.5664 107.164 29.709 108.389C29.7441 108.681 29.709 108.976 29.7656 109.268C29.8945 109.994 30.4805 109.638 30.8672 109.675C31.1641 109.702 31.582 109.871 31.6875 109.283C32.0312 107.36 30.6641 105.207 28.7969 104.772C26.416 104.22 24.4473 105.275 23.873 107.428C23.1562 110.113 24.127 112.206 26.168 113.924C27.1445 114.74 28.1719 115.49 28.9414 116.521C29.303 116.985 29.5455 117.532 29.6477 118.112C29.7498 118.692 29.7085 119.288 29.5273 119.848C29.2344 120.854 28.5332 121.33 27.4766 121.285C26.4766 121.242 25.8125 120.731 25.6055 119.747C25.5004 119.203 25.4506 118.65 25.457 118.097C25.457 117.639 25.2266 117.494 24.8535 117.58C24.4336 117.678 23.8027 117.23 23.6094 117.926C22.8789 120.584 24.8652 123.115 27.6523 123.111ZM141.174 113.818H141.197C141.197 115.676 141.113 117.537 141.217 119.39C141.352 121.804 142.842 123.119 145.232 123.109C147.623 123.099 149.043 121.794 149.227 119.361C149.285 118.578 149.227 117.795 149.283 117.012C149.354 116.122 148.746 116.331 148.258 116.298C147.703 116.261 147.318 116.323 147.371 117.061C147.45 117.907 147.415 118.759 147.27 119.596C147.021 120.852 146.098 121.483 144.836 121.25C143.75 121.054 143.17 120.271 143.16 118.844C143.141 115.552 143.15 112.26 143.16 108.968C143.162 108.643 143.209 108.32 143.299 108.007C143.6 106.935 144.305 106.442 145.385 106.496C146.43 106.553 147.074 107.084 147.252 108.15C147.361 108.793 147.401 109.445 147.371 110.096C147.34 110.724 147.588 110.83 148.152 110.869C149.027 110.929 149.414 110.673 149.279 109.753C149.199 109.209 149.264 108.643 149.191 108.095C148.914 105.964 147.57 104.739 145.48 104.678C142.812 104.598 141.264 106.025 141.184 108.728C141.127 110.426 141.174 112.121 141.174 113.818ZM14.5605 113.902C14.5605 116.642 14.5742 119.383 14.5488 122.111C14.5488 122.723 14.6836 122.962 15.3555 122.947C17.3379 122.9 19.3223 122.896 21.3027 122.947C22.0684 122.968 22.0469 122.555 22.0332 122.036C22.0215 121.547 22.1367 121.058 21.3359 121.099C20.0059 121.158 18.6699 121.099 17.3379 121.124C16.8223 121.134 16.5742 121.029 16.5859 120.435C16.6211 118.739 16.6211 117.043 16.5859 115.347C16.5723 114.746 16.8242 114.648 17.3359 114.666C18.2129 114.697 19.0938 114.65 19.9688 114.681C20.6152 114.705 21.0469 114.699 21.0293 113.797C21.0117 112.984 20.7383 112.818 20.0137 112.857C19.1074 112.91 18.1934 112.857 17.2793 112.877C16.793 112.892 16.5762 112.757 16.5859 112.225C16.6113 110.597 16.6191 108.966 16.5859 107.332C16.5723 106.723 16.8457 106.643 17.3477 106.655C18.584 106.678 19.8203 106.624 21.0586 106.676C21.791 106.71 22.0742 106.541 22.0664 105.731C22.0664 104.96 21.8008 104.815 21.1035 104.831C19.2188 104.876 17.332 104.89 15.4492 104.831C14.668 104.805 14.543 105.089 14.5508 105.78C14.5801 108.493 14.5605 111.196 14.5605 113.9V113.902ZM95.6562 113.902C95.6562 116.642 95.6738 119.383 95.6426 122.123C95.6426 122.741 95.7832 122.97 96.4453 122.954C98.4277 122.913 100.414 122.907 102.396 122.954C103.189 122.974 103.09 122.51 103.1 122.017C103.109 121.524 103.143 121.072 102.371 121.107C101.041 121.167 99.7031 121.107 98.3711 121.134C97.8184 121.148 97.6387 120.972 97.6484 120.416C97.6797 118.72 97.6797 117.023 97.6484 115.327C97.6484 114.793 97.8438 114.662 98.3281 114.677C99.3047 114.707 100.281 114.64 101.258 114.701C101.969 114.746 102.117 114.476 102.121 113.814C102.121 113.116 101.984 112.806 101.211 112.865C100.273 112.936 99.3242 112.855 98.3828 112.891C97.8398 112.912 97.6387 112.744 97.6504 112.176C97.6816 110.579 97.6816 108.982 97.6504 107.385C97.6387 106.823 97.8301 106.657 98.377 106.671C99.6777 106.704 100.98 106.637 102.283 106.698C103.029 106.735 103.129 106.414 103.117 105.784C103.107 105.187 103.078 104.825 102.301 104.848C100.348 104.903 98.3945 104.895 96.4414 104.848C95.7715 104.833 95.6387 105.075 95.6445 105.686C95.6719 108.42 95.6562 111.158 95.6562 113.897V113.902ZM128.469 113.902C128.469 116.605 128.506 119.308 128.447 122.011C128.43 122.835 128.73 122.974 129.445 122.947C130.088 122.923 130.529 122.947 130.494 122.048C130.418 120.032 130.506 118.011 130.451 115.993C130.432 115.231 130.686 115.036 131.395 115.086C132.203 115.143 133.023 115.045 133.83 115.116C134.637 115.186 134.611 114.756 134.635 114.174C134.652 113.534 134.521 113.213 133.791 113.268C132.984 113.329 132.166 113.245 131.355 113.294C130.707 113.331 130.432 113.17 130.453 112.446C130.506 110.787 130.502 109.119 130.453 107.465C130.436 106.796 130.678 106.641 131.293 106.663C132.494 106.706 133.701 106.629 134.9 106.694C135.637 106.733 135.67 106.367 135.66 105.813C135.65 105.259 135.715 104.813 134.879 104.835C133.061 104.897 131.238 104.89 129.42 104.835C128.676 104.813 128.424 104.989 128.443 105.786C128.516 108.497 128.477 111.2 128.477 113.902H128.469ZM7.83008 114.674C7.83008 117.147 7.88086 119.623 7.80469 122.095C7.77539 123.074 8.32617 122.898 8.90234 122.939C9.57227 122.99 9.86914 122.857 9.86133 122.064C9.81836 117.866 9.82813 113.666 9.85156 109.467C9.85156 108.567 9.46094 107.432 10.0469 106.831C10.5391 106.316 11.6562 106.649 12.4863 106.696C13.3164 106.743 13.1816 106.248 13.1836 105.766C13.1855 105.285 13.2832 104.823 12.4785 104.841C10.0742 104.895 7.66992 104.89 5.26758 104.841C4.55664 104.827 4.46875 105.134 4.50195 105.708C4.5332 106.218 4.38477 106.778 5.24609 106.686C5.85547 106.62 6.48242 106.714 7.0957 106.663C7.70898 106.612 7.85742 106.868 7.85156 107.446C7.82227 109.857 7.83789 112.266 7.83789 114.674H7.83008ZM38.0859 114.811C38.0859 112.366 38.1074 109.918 38.0703 107.477C38.0703 106.835 38.2461 106.612 38.8867 106.665C39.5273 106.718 40.1895 106.647 40.8398 106.682C41.5566 106.723 41.4258 106.226 41.3984 105.835C41.3711 105.443 41.6836 104.856 40.8672 104.856C38.3281 104.87 35.7891 104.856 33.25 104.856C33.0547 104.856 32.8848 104.856 32.7812 105.093C32.4219 105.954 32.8574 106.659 33.7695 106.669C34.225 106.693 34.6816 106.69 35.1367 106.659C35.918 106.561 36.1133 106.855 36.1133 107.624C36.0781 112.413 36.1133 117.204 36.0742 121.995C36.0742 122.815 36.3535 122.974 37.0742 122.939C37.7148 122.911 38.1406 122.939 38.1133 122.036C38.0449 119.635 38.0859 117.222 38.0859 114.811ZM117.717 114.715C117.717 117.128 117.742 119.541 117.701 121.956C117.689 122.68 117.824 122.997 118.643 122.956C119.348 122.921 119.74 122.913 119.729 121.991C119.672 117.817 119.691 113.642 119.713 109.465C119.713 108.565 119.322 107.43 119.891 106.829C120.375 106.31 121.5 106.647 122.332 106.696C123.164 106.745 123.045 106.269 123.035 105.776C123.025 105.283 123.178 104.821 122.35 104.839C119.943 104.893 117.533 104.88 115.123 104.839C114.496 104.829 114.408 105.062 114.361 105.622C114.287 106.498 114.578 106.796 115.436 106.678C115.916 106.612 116.412 106.706 116.898 106.657C117.535 106.59 117.738 106.813 117.729 107.465C117.703 109.888 117.725 112.301 117.725 114.715H117.717ZM164.625 114.779C164.625 117.19 164.666 119.602 164.604 122.011C164.582 122.847 164.904 122.958 165.609 122.949C166.314 122.939 166.643 122.886 166.633 122.025C166.584 117.66 166.609 113.294 166.609 108.927C166.609 106.678 166.609 106.678 168.807 106.676C168.937 106.666 169.067 106.666 169.197 106.676C169.941 106.81 169.953 106.352 169.943 105.811C169.934 105.271 170.02 104.819 169.184 104.833C166.812 104.89 164.438 104.88 162.064 104.833C161.367 104.821 161.25 105.109 161.283 105.696C161.316 106.211 161.172 106.768 162.029 106.674C162.641 106.61 163.268 106.704 163.881 106.651C164.494 106.598 164.639 106.858 164.631 107.434C164.617 109.892 164.633 112.335 164.633 114.779H164.625ZM171.293 113.801C171.293 116.568 171.328 119.336 171.27 122.103C171.252 122.952 171.66 122.97 172.268 122.941C172.842 122.913 173.385 123.093 173.375 122.107C173.324 116.636 173.324 111.166 173.375 105.698C173.375 104.719 172.85 104.882 172.271 104.86C171.664 104.835 171.252 104.843 171.271 105.696C171.338 108.391 171.301 111.094 171.301 113.795L171.293 113.801ZM44.7754 113.996C44.7754 111.229 44.7383 108.459 44.7969 105.692C44.8145 104.843 44.418 104.815 43.8027 104.852C43.2715 104.884 42.7422 104.696 42.75 105.635C42.793 111.139 42.793 116.643 42.75 122.148C42.75 123.066 43.248 122.917 43.791 122.931C44.377 122.952 44.8184 122.974 44.7988 122.107C44.7441 119.406 44.7832 116.703 44.7832 113.998L44.7754 113.996ZM126.391 113.996C126.391 111.256 126.355 108.516 126.412 105.79C126.428 104.978 126.146 104.811 125.42 104.846C124.785 104.876 124.357 104.829 124.365 105.739C124.415 111.179 124.415 116.618 124.365 122.056C124.365 122.966 124.783 122.921 125.418 122.95C126.145 122.984 126.43 122.823 126.412 122.009C126.367 119.336 126.398 116.664 126.398 113.992L126.391 113.996ZM139.25 113.895C139.25 111.192 139.215 108.487 139.271 105.786C139.291 104.952 138.975 104.827 138.266 104.846C137.615 104.864 137.219 104.846 137.227 105.745C137.273 111.183 137.273 116.622 137.227 122.06C137.217 122.968 137.637 122.925 138.273 122.95C138.998 122.98 139.289 122.821 139.271 122.003C139.223 119.298 139.258 116.594 139.258 113.891L139.25 113.895Z" fill="#FCFCFD"/>
<path d="M22.6563 75.4809C22.6563 68.7305 22.6758 61.9763 22.6328 55.2318C22.6328 54.2982 22.9199 54.1123 23.7852 54.1162C30.8457 54.1475 37.9082 54.1867 44.9688 54.1162C52.1738 54.0497 57.9004 51.0552 61.7109 44.8842C68.6055 33.7282 61.8926 19.0493 48.8926 16.6517C47.4806 16.4028 46.0489 16.2835 44.6152 16.2955C32.1836 16.2955 19.752 16.2955 7.31055 16.3308C6.2832 16.3308 6.07617 16.0352 6.09766 15.0743C6.16016 12.1737 6.13672 9.2712 6.09766 6.36869C6.09766 5.7052 6.25977 5.47426 6.96094 5.47621C20.1738 5.50753 33.3887 5.38031 46.5977 5.56429C59.1445 5.74043 70.6953 14.81 74.2012 26.8624C76.1375 33.4456 75.7226 40.4993 73.0278 46.8089C70.333 53.1185 65.527 58.2891 59.4375 61.4302C55.0041 63.7451 50.0773 64.9499 45.0781 64.9414C41.4648 64.9551 37.8516 64.9708 34.2402 64.9258C33.418 64.914 33.2188 65.1567 33.2207 65.9631C33.248 75.8795 33.2546 85.792 33.2402 95.7006C33.2402 96.9336 33.2402 96.9336 31.9668 96.9336C29.2012 96.9336 26.4355 96.9042 23.6699 96.9532C22.8652 96.9669 22.627 96.7574 22.6309 95.9256C22.6563 89.1107 22.6563 82.2958 22.6563 75.4809Z" fill="#027CAA"/>
<path d="M120.117 64.4365C119.994 64.4766 119.867 64.5029 119.738 64.5148C115.088 64.4737 110.436 64.6792 105.787 64.4404C90.957 63.683 78.8047 51.7755 77.6797 36.9009C76.7031 24.1283 84.4414 11.9135 96.4023 7.26514C100.102 5.8034 104.046 5.06208 108.023 5.08092C112.055 5.1044 116.088 5.11223 120.119 5.12789C120.119 8.68214 120.114 12.2364 120.104 15.7906C120.097 15.8142 120.095 15.8389 120.099 15.8631C120.102 15.8874 120.11 15.9107 120.123 15.9316C115.631 15.8317 111.148 15.7574 106.668 15.9492C101.795 16.1645 97.5391 18.0414 94.1406 21.5428C88.8965 26.9368 87.2207 33.4014 89.5527 40.5432C91.9434 47.8631 97.248 52.253 104.828 53.4078C109.873 54.1769 115.02 53.6407 120.121 53.6407L120.09 53.6896L120.117 53.7327C120.117 57.3039 120.117 60.8718 120.117 64.4365Z" fill="#037DAA"/>
<path d="M120.117 37.5781C124.609 37.445 129.09 37.5056 133.576 37.5487C136.084 37.5916 138.574 37.9761 140.979 38.6917C154.436 42.565 163.277 54.8796 162.658 68.8852C162.107 81.376 152.963 92.5202 140.502 95.8944C138.148 96.5524 135.719 96.8979 133.275 96.9219C128.887 96.9219 124.498 96.9004 120.107 96.8867C120.117 93.3168 120.125 89.7469 120.133 86.177L120.094 86.1006C124.355 86.1006 128.619 86.1378 132.881 86.1163C135.69 86.0926 138.458 85.4329 140.977 84.1865C147.965 80.7908 152.328 73.3417 151.676 65.9103C151.357 61.9978 149.844 58.2784 147.343 55.2571C144.842 52.2357 141.474 50.0588 137.695 49.0217C134.883 48.2389 132.031 48.3406 129.17 48.3289C126.145 48.3152 123.115 48.2858 120.098 48.2643L120.117 37.5781Z" fill="#025F82"/>
<path d="M120.148 80.6988C119.758 80.7203 119.367 80.7614 118.977 80.7614C106.936 80.7614 94.8919 80.7614 82.8438 80.7614C68.3398 80.7484 53.8301 80.7418 39.3145 80.7418C38.3379 80.7418 38.0391 80.5246 38.0664 79.5069C38.1426 76.6729 38.127 73.831 38.0664 70.997C38.0508 70.1163 38.2617 69.8501 39.1855 69.8521C51.9108 69.8834 64.6354 69.8906 77.3594 69.8736C91.2227 69.8736 105.086 69.8795 118.949 69.8912C119.34 69.8912 119.73 69.9264 120.121 69.946C120.129 73.529 120.138 77.1132 120.148 80.6988Z" fill="#037DAA"/>
<path d="M120.139 86.1691C120.131 89.739 120.122 93.3089 120.113 96.8788C119.758 96.8965 119.402 96.9317 119.047 96.9317C92.4948 96.9317 65.9427 96.9317 39.3906 96.9317C37.9219 96.9317 38.0996 97.0765 38.0957 95.6204C38.0957 92.7511 38.1191 89.8819 38.0762 87.0087C38.0664 86.2572 38.3105 86.0889 39.0234 86.0889C65.8672 86.1124 92.7116 86.1241 119.557 86.1241C119.75 86.128 119.945 86.1554 120.139 86.1691Z" fill="#027CAA"/>
<path d="M6.12891 59.3166C6.12891 47.1585 6.12239 34.9998 6.10937 22.8405C6.10937 21.9597 6.30469 21.6857 7.22461 21.7053C10.1191 21.7679 13.0156 21.7268 15.9102 21.7288C17.1816 21.7288 17.1816 21.7288 17.1816 22.9657C17.1816 39.0682 17.1816 55.1699 17.1816 71.2711C17.1816 79.4912 17.1816 87.6997 17.2012 95.914C17.2012 96.7204 17.0059 96.967 16.1777 96.9533C13.2188 96.9043 10.2559 96.8965 7.29687 96.9533C6.37109 96.9728 6.10156 96.7575 6.10351 95.7789C6.13997 83.6287 6.14844 71.4746 6.12891 59.3166Z" fill="#037DAA"/>
<path d="M22.6562 35.2745C22.6562 31.0685 22.6719 26.8586 22.6406 22.6565C22.6406 21.9421 22.8066 21.7092 23.5566 21.7112C30.877 21.7346 38.2051 21.6798 45.5215 21.7229C52.8769 21.764 58.9492 27.8411 58.9766 35.0924C59.0039 42.4612 53.0605 48.5559 45.6719 48.734H45.5742C38.2891 48.7771 31.0039 48.8064 23.7187 48.8847C22.8535 48.8847 22.627 48.6538 22.6348 47.7907C22.6758 43.6199 22.6562 39.4452 22.6562 35.2745ZM39.6602 37.9186C41.5137 37.9186 43.3711 37.9558 45.2227 37.9069C46.8223 37.8658 48.0117 36.6543 47.9922 35.2001C47.9727 33.7459 46.7617 32.5364 45.1797 32.5246C41.4395 32.4953 37.6992 32.5246 33.959 32.5031C33.4062 32.5031 33.2168 32.6851 33.2305 33.237C33.2598 34.5405 33.2656 35.844 33.2305 37.1514C33.2129 37.7386 33.3984 37.9499 34.002 37.9343C35.8867 37.8971 37.7734 37.9186 39.6602 37.9186Z" fill="#027CAA"/>
<path d="M120.104 15.7984C120.104 12.2441 120.109 8.68989 120.119 5.13564C120.477 5.11998 120.832 5.09258 121.189 5.09258C144.579 5.09258 167.967 5.08475 191.355 5.06909C192.27 5.06909 192.572 5.24719 192.551 6.22383C192.479 9.416 192.514 12.6121 192.508 15.814C192.117 15.8356 191.727 15.8747 191.336 15.8747C167.977 15.8825 144.617 15.8865 121.258 15.8865C120.877 15.8786 120.49 15.8258 120.104 15.7984Z" fill="#025F82"/>
<path d="M192.525 21.3803C192.525 24.5725 192.496 27.7666 192.545 30.9588C192.559 31.8337 192.35 32.1096 191.432 32.1077C181.316 32.0744 171.203 32.094 161.09 32.0959H121.189C120.834 32.0959 120.479 32.0568 120.123 32.0372L120.105 21.3666C120.461 21.3412 120.816 21.2942 121.172 21.2942C144.569 21.2838 167.967 21.2786 191.365 21.2786C191.752 21.2844 192.139 21.3471 192.525 21.3803Z" fill="#025F82"/>
<path d="M176.088 96.8239C172.639 96.8376 169.191 96.8435 165.736 96.8709C165.225 96.8709 165.018 96.6752 165.064 96.18C165.071 96.0496 165.071 95.919 165.064 95.7886C165.045 78.5458 165.026 61.3043 165.008 44.0641C165.008 42.011 165.043 39.954 165.047 37.9067C165.047 37.439 165.062 37.0926 165.695 37.0965C169.078 37.1239 172.461 37.118 175.852 37.1278C175.948 37.1408 176.042 37.1651 176.133 37.2002C176.133 37.623 176.109 38.0477 176.109 38.4704C176.109 57.4003 176.109 76.3296 176.109 95.2582C176.117 95.7808 176.098 96.3033 176.088 96.8239Z" fill="#025F82"/>
<path d="M181.578 37.1708C185.026 37.1512 188.477 37.1284 191.93 37.1023C192.406 37.1023 192.578 37.298 192.535 37.7443C192.52 37.9067 192.535 38.0711 192.535 38.2335C192.535 57.3748 192.543 76.5161 192.559 95.6574C192.559 96.6517 192.32 96.912 191.328 96.8885C188.107 96.8141 184.883 96.8513 181.664 96.8454C181.645 96.3581 181.611 95.8668 181.611 95.3834C181.596 75.9799 181.585 56.5756 181.578 37.1708Z" fill="#025F82"/>
<path d="M120.148 80.6987C120.139 77.1131 120.13 73.525 120.121 69.9342L130.949 69.8774C131.438 69.8774 131.926 69.8872 132.414 69.8774C134.023 69.8363 135.221 68.7207 135.248 67.245C135.275 65.7693 134.055 64.5343 132.406 64.505C129.967 64.4736 127.523 64.505 125.088 64.4952C123.432 64.4952 121.768 64.6028 120.121 64.4286C120.121 60.8626 120.121 57.296 120.121 53.7287C121.389 53.713 122.66 53.668 123.924 53.6876C127.371 53.7404 130.84 53.3901 134.26 53.8481C139.684 54.5722 143.555 57.5667 145.424 62.718C147.32 67.9516 146.123 72.6997 142.273 76.6826C139.475 79.5772 135.926 80.7594 131.943 80.7594C128.008 80.7594 124.072 80.7848 120.135 80.7966C120.13 80.7803 120.128 80.763 120.131 80.7461C120.133 80.7292 120.139 80.713 120.148 80.6987Z" fill="#025F82"/>
<path d="M120.105 21.3724L120.117 32.043L110.363 32.1056C109.42 32.1056 108.475 32.0665 107.535 32.131C106.88 32.1811 106.266 32.4701 105.809 32.9432C105.352 33.4164 105.083 34.041 105.055 34.6989C105.032 35.3584 105.253 36.0032 105.676 36.509C106.099 37.0149 106.694 37.3461 107.346 37.4389C107.799 37.5004 108.256 37.5272 108.713 37.5192C112.518 37.544 116.322 37.5655 120.125 37.5838L120.113 48.27C120.106 48.2886 120.103 48.3089 120.106 48.3289C120.109 48.3488 120.116 48.3677 120.129 48.3835C116.198 48.3679 112.266 48.3542 108.334 48.3424C107.424 48.3476 106.516 48.2861 105.615 48.1584C99.4141 47.2327 94.3867 41.8328 94.0977 35.7734C93.7734 29.0269 97.9922 23.265 104.371 21.6992C105.638 21.409 106.935 21.2698 108.234 21.2843C112.197 21.2687 116.159 21.2465 120.121 21.2178C120.098 21.2658 120.092 21.3206 120.105 21.3724Z" fill="#037DAA"/>
<path d="M120.127 80.8043C124.064 80.7926 128 80.7691 131.936 80.7672C135.918 80.7672 139.467 79.5928 142.266 76.6903C146.115 72.7055 147.313 67.9593 145.416 62.7258C143.547 57.5647 139.676 54.58 134.252 53.8558C130.832 53.3979 127.363 53.7482 123.916 53.6954C122.648 53.6758 121.377 53.7208 120.113 53.7365L120.082 53.6895L120.113 53.6406C120.113 51.8869 120.113 50.1326 120.113 48.3777C120.101 48.3618 120.093 48.343 120.09 48.323C120.087 48.3031 120.09 48.2828 120.098 48.2642C123.121 48.2857 126.152 48.315 129.17 48.3287C132.031 48.3405 134.891 48.2524 137.695 49.0216C141.472 50.0585 144.839 52.2344 147.34 55.2542C149.84 58.274 151.353 61.9914 151.674 65.9023C152.326 73.3396 147.963 80.7769 140.975 84.1785C138.456 85.4249 135.688 86.0846 132.879 86.1083C128.617 86.1298 124.354 86.1083 120.092 86.0927C120.109 84.3299 120.12 82.5671 120.127 80.8043Z" fill="#A7E4F9"/>
<path d="M192.525 21.3802C192.135 21.347 191.744 21.2843 191.365 21.2843C167.967 21.2843 144.569 21.2896 121.172 21.3C120.816 21.3 120.461 21.347 120.105 21.3724C120.092 21.3207 120.098 21.2658 120.121 21.2178C120.121 19.4576 120.121 17.6962 120.121 15.9334C120.108 15.9125 120.1 15.8892 120.097 15.865C120.093 15.8407 120.095 15.8161 120.102 15.7925C120.492 15.8199 120.883 15.8727 121.262 15.8727C144.621 15.8727 167.98 15.8688 191.34 15.861C191.73 15.861 192.121 15.8218 192.512 15.8003L192.525 21.3802Z" fill="#A7E4F9"/>
<path d="M181.578 37.1709C181.586 56.5771 181.594 75.9813 181.602 95.3835C181.602 95.8708 181.635 96.3621 181.654 96.8455L176.088 96.824C176.088 96.3034 176.117 95.7808 176.117 95.2582C176.117 76.3283 176.117 57.3991 176.117 38.4705C176.117 38.0477 176.133 37.623 176.141 37.2003L181.578 37.1709Z" fill="#A7E4F9"/>
<path d="M192.143 117.228V105.989C192.143 105.383 191.986 104.815 193.014 104.815C193.961 104.815 193.939 105.25 193.938 105.935C193.92 111.248 193.938 116.562 193.91 121.878C193.91 122.234 194.277 122.947 193.471 122.896C192.803 122.855 191.928 123.387 191.563 122.189C190.316 118.079 188.99 113.987 187.695 109.89C187.609 109.624 187.52 109.358 187.396 108.992C187.139 109.444 187.234 109.798 187.232 110.131C187.232 114.11 187.205 118.087 187.248 122.07C187.248 122.878 186.93 122.952 186.271 122.949C185.646 122.949 185.352 122.855 185.357 122.111C185.389 116.631 185.389 111.154 185.357 105.68C185.357 105.056 185.508 104.839 186.172 104.845C187.93 104.858 187.941 104.825 188.475 106.496C189.525 109.783 190.576 113.071 191.627 116.359C191.725 116.66 191.846 116.946 191.955 117.253L192.143 117.228Z" fill="#595959"/>
<path d="M53.543 117.236C53.543 113.433 53.5625 109.63 53.5254 105.827C53.5254 105.072 53.6973 104.813 54.4863 104.833C55.1836 104.848 55.3477 105.056 55.3418 105.725C55.3105 109.538 55.3281 113.358 55.3281 117.161C55.3281 118.791 55.2988 120.422 55.3418 122.054C55.3574 122.706 55.209 122.923 54.502 122.966C53.5137 123.029 53.123 122.702 52.8359 121.739C51.6465 117.748 50.3477 113.791 49.0879 109.82C49.002 109.548 48.8926 109.278 48.793 108.966C48.5156 109.309 48.6426 109.657 48.6426 109.972C48.6309 113.981 48.6113 117.997 48.6543 121.995C48.6641 122.796 48.4004 122.935 47.6777 122.964C46.832 122.997 46.832 122.586 46.834 121.968C46.8496 116.592 46.8633 111.215 46.8223 105.839C46.8223 104.984 47.0898 104.815 47.8672 104.85C49.75 104.937 49.2852 104.594 49.8379 106.283C50.9082 109.589 51.9531 112.91 53.0137 116.226C53.127 116.58 53.2754 116.922 53.4043 117.271L53.543 117.236Z" fill="#595959"/>
<path d="M110.963 114.21C112.602 114.865 112.943 116.257 113.029 117.791C113.117 119.381 112.867 120.983 113.225 122.565C113.244 122.649 113.244 122.806 113.207 122.821C112.711 123.033 112.186 122.89 111.672 122.919C111.338 122.939 111.209 122.696 111.168 122.432C111.08 121.951 111.024 121.466 111.002 120.978C110.977 119.903 111.002 118.825 110.982 117.752C110.938 115.981 110.227 115.259 108.467 115.237C106.648 115.214 107.004 115.092 106.984 116.631C106.963 118.457 106.93 120.285 107 122.111C107.035 122.988 106.572 122.96 105.982 122.933C105.459 122.907 104.902 123.115 104.908 122.172C104.949 116.662 104.936 111.153 104.918 105.645C104.918 105.074 105.041 104.827 105.668 104.85C106.969 104.897 108.271 104.833 109.574 104.888C111.561 104.974 112.699 106.033 112.922 108.019C113.005 108.83 113.034 109.645 113.01 110.46C112.969 112.403 112.57 113.12 110.963 114.21ZM106.971 109.978V111.544C106.971 113.542 106.971 113.542 109.008 113.335C110.285 113.204 110.893 112.617 110.961 111.348C111.006 110.442 110.982 109.53 110.961 108.622C110.945 108.021 110.781 107.436 110.264 107.08C109.332 106.44 108.258 106.698 107.236 106.716C106.891 106.716 106.988 107.107 106.986 107.354C106.965 108.227 106.971 109.103 106.971 109.98V109.978Z" fill="#595959"/>
<path d="M175.195 113.83C175.305 111.912 175.041 109.984 175.346 108.074C175.711 105.79 177.053 104.678 179.369 104.68C181.686 104.682 183.047 105.806 183.424 108.052C183.495 108.437 183.535 108.826 183.543 109.217C183.543 112.348 183.578 115.47 183.543 118.596C183.504 121.672 181.943 123.205 179.051 123.097C177.082 123.031 175.754 121.923 175.391 119.966C175 117.928 175.311 115.875 175.195 113.83ZM181.475 113.945C181.475 112.155 181.537 110.36 181.455 108.571C181.377 106.866 179.893 105.993 178.414 106.702C177.363 107.201 177.26 108.199 177.256 109.201C177.244 112.333 177.256 115.464 177.256 118.584C177.255 118.878 177.278 119.171 177.324 119.461C177.549 120.884 178.641 121.577 180.031 121.197C181.09 120.907 181.449 120.099 181.473 119.126C181.496 117.4 181.467 115.672 181.467 113.945H181.475Z" fill="#595959"/>
<path d="M73.2773 113.45C71.0625 111.943 70.5918 107.97 72.3281 106.027C72.6216 105.697 72.9778 105.429 73.3758 105.238C73.7739 105.048 74.2059 104.938 74.6465 104.917C75.748 104.847 76.8555 104.884 77.9668 104.858C78.7832 104.841 78.4668 105.445 78.498 105.837C78.5293 106.228 78.6582 106.72 77.9414 106.688C77.1309 106.651 76.3164 106.655 75.5059 106.688C74.1836 106.747 73.5527 107.33 73.3574 108.624C73.3187 108.914 73.3004 109.206 73.3027 109.499C73.2754 112.092 74.4434 113.051 76.9902 112.589C77.5762 112.483 77.3945 112.096 77.4062 111.783C77.4492 110.642 77.9922 110.264 79.1055 110.581C79.5293 110.7 79.4023 111.012 79.4434 111.28C79.5273 111.806 79.1133 112.517 80.1289 112.683C80.5449 112.75 80.3242 114.284 79.8437 114.421C79.5059 114.517 79.4355 114.679 79.4531 114.963C79.5352 117.465 79.248 119.978 79.6367 122.467C79.6973 122.843 79.6055 122.894 79.2832 122.935C78.084 123.088 77.8359 122.96 77.3086 121.782C76.6016 122.635 75.7461 123.131 74.6211 123.119C72.9902 123.103 71.9375 122.389 71.5625 120.805C71.1756 119.117 71.1642 117.365 71.5293 115.672C71.7051 114.695 72.3105 113.981 73.2773 113.45ZM77.3633 117.224H77.3965V116.347C77.3965 114.225 77.3965 114.229 75.2598 114.452C74.3105 114.552 73.666 115.049 73.457 115.971C73.169 117.245 73.163 118.566 73.4394 119.843C73.6543 120.839 74.416 121.342 75.4629 121.287C76.5469 121.232 77.2676 120.616 77.3516 119.565C77.4141 118.79 77.3633 118.005 77.3633 117.224Z" fill="#595959"/>
<path d="M57.2441 114.327C57.2441 112.133 57.1973 110.469 57.2441 108.808C57.3535 105.637 59.7168 103.97 62.7441 104.862C64.2402 105.304 64.9434 106.412 65.2246 107.839C65.3496 108.473 65.3027 109.139 65.3926 109.782C65.5098 110.63 65.1367 110.8 64.3574 110.798C63.623 110.798 63.3809 110.593 63.4414 109.859C63.5146 109.242 63.4709 108.616 63.3125 108.015C63.0156 106.984 62.3809 106.49 61.3223 106.5C60.2637 106.51 59.6289 107.033 59.375 108.056C59.356 108.12 59.3429 108.186 59.3359 108.252C59.1738 112.029 59.1133 115.809 59.3691 119.58C59.4492 120.754 60.2637 121.3 61.375 121.293C62.4863 121.285 63.1328 120.778 63.3496 119.647C63.625 118.261 63.4336 116.852 63.4629 115.452C63.4629 114.912 63.0195 115.092 62.7363 115.081C61.5644 115.03 61.418 114.848 61.5859 113.72C61.6348 113.393 61.7617 113.256 62.0762 113.268C62.1406 113.268 62.2051 113.268 62.2715 113.268C63.2734 113.313 64.5488 112.863 65.2012 113.44C65.8535 114.018 65.3789 115.288 65.3965 116.255C65.4102 117.429 65.4941 118.603 65.291 119.768C64.9004 121.972 63.6087 123.087 61.416 123.115C59.1191 123.14 57.7637 122.101 57.3828 119.854C57.0312 117.848 57.3223 115.814 57.2441 114.327Z" fill="#595959"/>
<path d="M155.445 104.86C156.973 104.86 156.975 104.86 157.252 106.301C158.26 111.54 159.273 116.779 160.262 122.023C160.314 122.308 160.701 122.935 159.996 122.888C159.438 122.849 158.564 123.463 158.32 122.365C158.145 121.573 157.971 120.774 157.855 119.972C157.787 119.498 157.621 119.296 157.117 119.31C155.98 119.341 154.842 119.332 153.705 119.31C153.314 119.31 153.119 119.428 153.063 119.84C152.93 120.674 152.723 121.496 152.578 122.33C152.383 123.43 151.543 122.87 151.016 122.886C150.273 122.907 150.738 122.289 150.789 122.025C151.809 116.523 152.875 111.031 153.9 105.53C154.119 104.381 154.979 105.068 155.445 104.86ZM155.482 107.62L155.313 107.655C154.727 110.687 154.162 113.722 153.555 116.748C153.426 117.4 153.584 117.627 154.262 117.584C155.073 117.537 155.886 117.537 156.697 117.584C157.373 117.621 157.428 117.365 157.283 116.776C157.002 115.574 156.813 114.351 156.574 113.139C156.223 111.297 155.859 109.46 155.482 107.62Z" fill="#595959"/>
<path d="M85.7109 113.818C85.7109 112.092 85.6582 110.364 85.7227 108.639C85.8242 105.986 87.3535 104.604 89.9961 104.674C92.1074 104.731 93.4824 106.003 93.7383 108.168C93.7988 108.683 93.7383 109.213 93.8086 109.734C93.9238 110.608 93.6348 110.925 92.7109 110.882C91.9961 110.847 91.8281 110.606 91.8691 109.959C91.8997 109.406 91.8775 108.851 91.8027 108.303C91.6504 107.15 90.9668 106.541 89.8652 106.498C88.7637 106.455 88.0371 107.021 87.7754 108.144C87.718 108.401 87.6905 108.664 87.6934 108.927C87.6934 112.254 87.6738 115.572 87.6934 118.895C87.7031 120.345 88.3301 121.134 89.4902 121.281C90.7109 121.438 91.6387 120.799 91.7832 119.572C91.8744 118.698 91.9032 117.818 91.8691 116.94C91.8555 116.094 92.4551 116.337 92.8887 116.323C93.3223 116.31 93.8477 116.163 93.8047 116.934C93.7559 117.811 93.8223 118.695 93.7363 119.57C93.5078 121.895 92.0508 123.136 89.6562 123.119C87.3672 123.103 85.8887 121.805 85.75 119.498C85.6406 117.615 85.7266 115.723 85.7266 113.834L85.7109 113.818Z" fill="#595959"/>
<path d="M27.6523 123.111C24.8652 123.111 22.8789 120.584 23.6152 117.93C23.8105 117.233 24.4395 117.682 24.8594 117.584C25.2324 117.498 25.4609 117.643 25.4629 118.101C25.4565 118.654 25.5062 119.207 25.6113 119.75C25.8184 120.729 26.4824 121.246 27.4824 121.289C28.5391 121.334 29.2402 120.858 29.5332 119.852C29.7144 119.292 29.7557 118.696 29.6535 118.115C29.5514 117.535 29.3089 116.989 28.9473 116.525C28.1777 115.49 27.1426 114.744 26.1738 113.928C24.1328 112.209 23.1621 110.117 23.8789 107.432C24.4531 105.279 26.418 104.224 28.8027 104.776C30.6641 105.207 32.0312 107.359 31.6875 109.287C31.582 109.874 31.1641 109.704 30.8672 109.679C30.4766 109.642 29.8906 109.998 29.7656 109.272C29.7148 108.984 29.7441 108.684 29.709 108.393C29.5664 107.168 28.8965 106.522 27.7559 106.502C26.6152 106.483 25.9824 107.038 25.7402 108.213C25.4785 109.487 25.8086 110.593 26.6445 111.573C27.4121 112.474 28.3652 113.161 29.2559 113.922C30.9355 115.357 31.9199 117.067 31.6816 119.384C31.4453 121.774 30.0508 123.109 27.6523 123.111Z" fill="#595959"/>
<path d="M141.174 113.818C141.174 112.123 141.127 110.428 141.184 108.73C141.273 106.027 142.822 104.6 145.48 104.68C147.566 104.741 148.91 105.966 149.191 108.097C149.264 108.645 149.191 109.211 149.279 109.755C149.414 110.683 149.027 110.93 148.152 110.871C147.582 110.832 147.334 110.726 147.371 110.098C147.401 109.447 147.361 108.795 147.252 108.152C147.074 107.09 146.43 106.555 145.385 106.498C144.305 106.438 143.6 106.937 143.299 108.009C143.209 108.322 143.162 108.645 143.16 108.97C143.15 112.262 143.141 115.554 143.16 118.846C143.16 120.265 143.746 121.052 144.836 121.252C146.09 121.485 147.021 120.86 147.27 119.598C147.415 118.761 147.45 117.909 147.371 117.063C147.318 116.325 147.703 116.263 148.258 116.3C148.746 116.333 149.354 116.124 149.283 117.014C149.223 117.797 149.283 118.58 149.227 119.363C149.043 121.796 147.629 123.107 145.232 123.111C142.836 123.115 141.352 121.802 141.217 119.392C141.113 117.541 141.197 115.674 141.197 113.82L141.174 113.818Z" fill="#595959"/>
<path d="M14.5605 113.9C14.5605 111.196 14.5801 108.493 14.5449 105.79C14.5449 105.099 14.666 104.811 15.4434 104.841C17.3262 104.903 19.2129 104.89 21.1074 104.841C21.8047 104.825 22.0625 104.97 22.0703 105.741C22.0703 106.551 21.7949 106.72 21.0625 106.686C19.8301 106.633 18.5937 106.686 17.3516 106.665C16.8496 106.653 16.5703 106.733 16.5898 107.342C16.627 108.968 16.6191 110.599 16.5898 112.235C16.5801 112.767 16.7969 112.902 17.2832 112.887C18.1934 112.859 19.1074 112.92 20.0176 112.867C20.7422 112.824 21.0156 112.994 21.0332 113.807C21.0508 114.709 20.6191 114.715 19.9727 114.691C19.0957 114.66 18.2148 114.707 17.3398 114.676C16.8281 114.658 16.5762 114.756 16.5898 115.357C16.6276 117.053 16.6276 118.749 16.5898 120.445C16.5781 121.032 16.8262 121.144 17.3418 121.134C18.6738 121.107 20.0098 121.168 21.3398 121.109C22.1406 121.076 22.0254 121.557 22.0371 122.046C22.0508 122.571 22.0723 122.978 21.3066 122.956C19.3262 122.905 17.3418 122.909 15.3594 122.956C14.6875 122.972 14.5469 122.733 14.5527 122.121C14.5742 119.373 14.5605 116.637 14.5605 113.9Z" fill="#595959"/>
<path d="M95.6563 113.897C95.6563 111.157 95.6719 108.416 95.6445 105.676C95.6445 105.066 95.7715 104.823 96.4414 104.839C98.3945 104.884 100.348 104.892 102.301 104.839C103.082 104.815 103.107 105.177 103.117 105.774C103.129 106.404 103.029 106.725 102.283 106.688C100.984 106.628 99.6816 106.688 98.377 106.661C97.8301 106.647 97.6387 106.814 97.6504 107.375C97.6816 108.972 97.6816 110.569 97.6504 112.166C97.6387 112.734 97.8457 112.902 98.3828 112.881C99.3242 112.846 100.273 112.926 101.211 112.855C101.992 112.797 102.125 113.106 102.121 113.805C102.121 114.466 101.969 114.736 101.258 114.691C100.281 114.631 99.3047 114.691 98.3281 114.668C97.8359 114.652 97.6387 114.783 97.6484 115.318C97.6784 117.014 97.6784 118.71 97.6484 120.406C97.6484 120.962 97.8184 121.138 98.3711 121.124C99.7031 121.091 101.041 121.158 102.371 121.097C103.143 121.062 103.109 121.489 103.1 122.007C103.09 122.526 103.189 122.964 102.396 122.945C100.414 122.896 98.4277 122.902 96.4453 122.945C95.7832 122.96 95.6367 122.731 95.6426 122.113C95.6738 119.373 95.6563 116.635 95.6563 113.897Z" fill="#595959"/>
<path d="M128.477 113.902C128.477 111.2 128.51 108.497 128.457 105.796C128.441 104.999 128.693 104.817 129.434 104.845C131.252 104.896 133.074 104.903 134.893 104.845C135.721 104.817 135.656 105.267 135.674 105.823C135.691 106.379 135.65 106.743 134.914 106.704C133.715 106.639 132.508 106.716 131.307 106.673C130.691 106.651 130.449 106.806 130.467 107.475C130.514 109.135 130.518 110.802 130.467 112.456C130.445 113.18 130.721 113.341 131.369 113.304C132.18 113.255 132.998 113.339 133.805 113.278C134.535 113.223 134.666 113.544 134.648 114.184C134.631 114.771 134.637 115.194 133.844 115.126C133.051 115.057 132.217 115.153 131.408 115.096C130.699 115.045 130.445 115.241 130.465 116.003C130.52 118.02 130.432 120.042 130.508 122.058C130.543 122.96 130.102 122.933 129.459 122.956C128.744 122.984 128.443 122.845 128.461 122.021C128.516 119.308 128.477 116.605 128.477 113.902Z" fill="#595959"/>
<path d="M7.83789 114.673C7.83789 112.266 7.82226 109.857 7.84961 107.448C7.84961 106.87 7.71484 106.616 7.09375 106.665C6.47266 106.714 5.85351 106.622 5.24414 106.688C4.38281 106.782 4.53125 106.222 4.5 105.71C4.46679 105.136 4.55469 104.829 5.26562 104.843C7.66797 104.888 10.0723 104.893 12.4766 104.843C13.2812 104.825 13.1855 105.275 13.1816 105.768C13.1777 106.261 13.3066 106.747 12.4844 106.698C11.6621 106.649 10.5312 106.318 10.0449 106.833C9.45898 107.434 9.86328 108.569 9.84961 109.469C9.82617 113.667 9.8164 117.868 9.85937 122.066C9.85937 122.858 9.57031 122.992 8.90039 122.941C8.31445 122.9 7.77343 123.08 7.80273 122.097C7.88867 119.623 7.83789 117.145 7.83789 114.673Z" fill="#595959"/>
<path d="M38.0859 114.81C38.0859 117.222 38.0371 119.635 38.1113 122.052C38.1387 122.952 37.7207 122.927 37.0723 122.954C36.3516 122.984 36.0644 122.831 36.0723 122.011C36.1152 117.22 36.0723 112.421 36.1113 107.639C36.1113 106.856 35.916 106.577 35.1348 106.674C34.6796 106.705 34.2231 106.708 33.7676 106.684C32.8555 106.684 32.4199 105.97 32.7793 105.109C32.8828 104.864 33.0605 104.872 33.248 104.872C35.7871 104.872 38.3262 104.872 40.8652 104.872C41.6816 104.872 41.3652 105.459 41.3965 105.85C41.4277 106.242 41.5547 106.739 40.8379 106.698C40.1894 106.663 39.5332 106.733 38.8848 106.68C38.2363 106.627 38.0605 106.851 38.0684 107.493C38.1152 109.921 38.0859 112.366 38.0859 114.81Z" fill="#595959"/>
<path d="M117.725 114.715C117.725 112.301 117.703 109.888 117.738 107.473C117.748 106.821 117.543 106.598 116.908 106.665C116.424 106.714 115.932 106.62 115.445 106.686C114.588 106.804 114.297 106.506 114.371 105.629C114.418 105.068 114.506 104.835 115.133 104.846C117.541 104.882 119.951 104.895 122.359 104.846C123.187 104.829 123.037 105.31 123.045 105.784C123.053 106.258 123.148 106.751 122.342 106.704C121.535 106.657 120.389 106.312 119.9 106.837C119.336 107.438 119.727 108.573 119.723 109.473C119.701 113.646 119.682 117.821 119.738 121.999C119.75 122.921 119.357 122.929 118.652 122.964C117.834 123.005 117.699 122.688 117.711 121.964C117.75 119.541 117.725 117.128 117.725 114.715Z" fill="#595959"/>
<path d="M164.633 114.779C164.633 112.335 164.617 109.886 164.645 107.448C164.645 106.872 164.525 106.61 163.895 106.665C163.264 106.72 162.654 106.624 162.043 106.688C161.186 106.78 161.33 106.222 161.297 105.71C161.258 105.123 161.375 104.835 162.078 104.847C164.451 104.89 166.826 104.899 169.197 104.847C170.033 104.827 169.949 105.277 169.957 105.825C169.965 106.373 169.957 106.823 169.211 106.69C169.081 106.679 168.95 106.679 168.82 106.69C166.623 106.69 166.623 106.69 166.623 108.941C166.623 113.307 166.598 117.674 166.646 122.038C166.646 122.9 166.301 122.952 165.623 122.962C164.945 122.972 164.596 122.861 164.617 122.025C164.674 119.602 164.633 117.191 164.633 114.779Z" fill="#595959"/>
<path d="M171.301 113.795C171.301 111.094 171.338 108.391 171.279 105.69C171.26 104.837 171.67 104.829 172.279 104.854C172.865 104.876 173.391 104.71 173.383 105.692C173.332 111.162 173.332 116.631 173.383 122.101C173.383 123.08 172.85 122.907 172.275 122.935C171.664 122.964 171.26 122.947 171.277 122.097C171.336 119.33 171.301 116.558 171.301 113.795Z" fill="#595959"/>
<path d="M44.7832 113.998C44.7832 116.703 44.7441 119.406 44.8047 122.109C44.8242 122.976 44.3906 122.954 43.7969 122.933C43.2539 122.913 42.75 123.062 42.7559 122.15C42.8014 116.646 42.8014 111.142 42.7559 105.637C42.7559 104.704 43.2773 104.891 43.8086 104.854C44.4238 104.817 44.8203 104.845 44.8027 105.694C44.7461 108.461 44.7832 111.231 44.7832 113.998Z" fill="#595959"/>
<path d="M126.398 113.992C126.398 116.664 126.363 119.335 126.42 122.005C126.437 122.819 126.152 122.984 125.426 122.946C124.791 122.917 124.365 122.962 124.373 122.052C124.423 116.614 124.423 111.175 124.373 105.735C124.373 104.825 124.793 104.872 125.428 104.842C126.154 104.807 126.436 104.974 126.42 105.786C126.367 108.52 126.398 111.256 126.398 113.992Z" fill="#595959"/>
<path d="M139.258 113.891C139.258 116.594 139.223 119.298 139.279 121.999C139.297 122.817 139.006 122.978 138.281 122.947C137.645 122.921 137.225 122.964 137.234 122.056C137.284 116.619 137.284 111.181 137.234 105.741C137.234 104.85 137.625 104.86 138.273 104.843C138.982 104.823 139.299 104.948 139.279 105.782C139.223 108.483 139.258 111.188 139.258 113.891Z" fill="#595959"/>
<path d="M120.117 15.9393C120.117 17.6981 120.117 19.4596 120.117 21.2237C116.155 21.2472 112.193 21.2693 108.23 21.2902C106.931 21.2757 105.634 21.4149 104.367 21.7051C97.9883 23.2709 93.7695 29.0328 94.0937 35.7793C94.3828 41.8465 99.4101 47.2386 105.604 48.1585C106.504 48.2862 107.413 48.3476 108.322 48.3425C112.253 48.3503 116.185 48.364 120.117 48.3836C120.117 50.1372 120.117 51.8915 120.117 53.6464C115.016 53.6464 109.869 54.1827 104.824 53.4135C97.2441 52.2588 91.9336 47.8688 89.5488 40.5489C87.2129 33.4013 88.8887 26.9367 94.1406 21.5427C97.5469 18.0413 101.803 16.1643 106.676 15.9569C111.148 15.7631 115.639 15.8395 120.117 15.9393Z" fill="#FCFCFD"/>
<path d="M39.6602 37.9185C37.7734 37.9185 35.8867 37.897 33.9961 37.9302C33.3926 37.94 33.2148 37.7345 33.2246 37.1474C33.2617 35.8439 33.2559 34.5404 33.2246 33.233C33.2109 32.6811 33.4004 32.4971 33.9531 32.499C37.6934 32.5186 41.4336 32.499 45.1738 32.5206C46.7559 32.5323 47.9668 33.734 47.9863 35.196C48.0059 36.6581 46.8223 37.8598 45.2227 37.9009C43.3691 37.9498 41.5117 37.9126 39.6602 37.9126V37.9185Z" fill="#FCFCFD"/>
<path d="M106.971 109.98C106.971 109.103 106.971 108.219 106.971 107.35C106.971 107.111 106.875 106.718 107.221 106.712C108.242 106.694 109.316 106.436 110.248 107.076C110.766 107.432 110.93 108.017 110.945 108.618C110.971 109.526 110.994 110.438 110.945 111.344C110.883 112.613 110.275 113.2 108.992 113.331C106.955 113.538 106.955 113.538 106.955 111.54L106.971 109.98Z" fill="#FCFCFD"/>
<path d="M181.467 113.945C181.467 115.672 181.496 117.4 181.457 119.126C181.434 120.105 181.066 120.907 180.016 121.197C178.625 121.576 177.533 120.884 177.309 119.461C177.262 119.171 177.24 118.878 177.24 118.584C177.24 115.452 177.23 112.321 177.24 109.201C177.24 108.199 177.348 107.201 178.398 106.702C179.887 105.993 181.361 106.866 181.439 108.571C181.521 110.36 181.459 112.155 181.459 113.945H181.467Z" fill="#FCFCFD"/>
<path d="M77.3633 117.224C77.3633 118.007 77.4141 118.79 77.3516 119.572C77.2676 120.623 76.5469 121.24 75.4629 121.295C74.4238 121.35 73.6543 120.847 73.4395 119.85C73.1619 118.572 73.1679 117.247 73.457 115.971C73.666 115.049 74.3105 114.552 75.2598 114.452C77.3965 114.229 77.3965 114.225 77.3965 116.347V117.224H77.3633Z" fill="#FCFCFD"/>
<path d="M155.482 107.62C155.852 109.46 156.223 111.297 156.584 113.137C156.822 114.349 157.012 115.572 157.293 116.774C157.43 117.361 157.375 117.619 156.707 117.582C155.896 117.535 155.083 117.535 154.271 117.582C153.594 117.625 153.436 117.398 153.564 116.746C154.17 113.718 154.736 110.679 155.322 107.653L155.482 107.62Z" fill="#FCFCFD"/>
</g>
<defs>
<clipPath id="clip0_79_1949">
<rect width="200" height="128" fill="white"/>
</clipPath>
</defs>
</svg>
