<svg width="66" height="74" viewBox="0 0 66 74" fill="none" xmlns="http://www.w3.org/2000/svg">
<mask id="mask0_1_192" style="mask-type:luminance" maskUnits="userSpaceOnUse" x="0" y="0" width="66" height="74">
<path d="M0 0H65.651V73.6094H0V0Z" fill="white"/>
</mask>
<g mask="url(#mask0_1_192)">
<path d="M57.8802 73.4531C57.6458 72.9062 57.4531 72.474 57.2708 72.0365C55.5052 67.7656 54.9375 63.3021 55.2135 58.7292C55.5677 52.875 57.7083 47.6146 60.9271 42.776C65.3229 36.1563 66.6458 28.9896 64.6875 21.3073C62.1562 11.3906 56.3958 4.22917 46.3073 1.4375C42.4635 0.375002 38.3177 0.213544 34.2969 0.0364606C30.3646 -0.135414 26.4219 0.291669 22.7031 1.82813C16.7969 4.27604 11.6771 7.625 9.33854 13.9635C8.23958 16.9427 7.29167 19.974 6.36459 23.0104C5.8125 24.8073 5.82813 26.6094 6.71354 28.3646C7.30209 29.5365 7.27084 30.7292 6.45834 31.875C4.67709 34.3802 2.9375 36.9219 1.1875 39.4531C-0.130206 41.349 0.239585 42.9062 2.28125 43.974C2.80729 44.2448 3.36979 44.4896 3.94271 44.599C5.0625 44.8177 5.29167 45.599 4.88542 46.3958C3.96875 48.1875 4.54688 49.4792 5.64583 50.2656C5.69792 51.4271 5.4375 52.4531 5.83334 52.9792C6.85417 54.3229 6.94792 55.6042 6.59375 57.1979C5.82292 60.6562 7.48438 63.1979 10.9844 63.8073C13.3125 64.2135 15.7083 64.224 18.0677 64.4479C21.1354 64.7448 22.2813 66.0573 22.4219 69.1146C22.4896 70.5469 22.776 71.974 22.974 73.4531C34.6667 73.4531 46.1979 73.4531 57.8802 73.4531Z" fill="#017BAA"/>
</g>
<path d="M61.0573 23.7917C61.0573 24.4844 61.0156 25.1771 60.9375 25.8646C60.8542 26.5573 60.7344 27.2448 60.5781 27.9219C60.4167 28.6042 60.2188 29.276 59.9792 29.9427C59.7448 30.6042 59.4688 31.2552 59.1563 31.8958C58.8438 32.5364 58.4948 33.1667 58.1094 33.776C57.724 34.3906 57.3073 34.9844 56.8542 35.5625C56.3959 36.1354 55.9115 36.6927 55.3959 37.2292C54.875 37.7656 54.3281 38.2812 53.75 38.7708C53.1719 39.2604 52.5677 39.7292 51.9375 40.1667C51.3073 40.6094 50.6511 41.0208 49.9688 41.4062C49.2917 41.7917 48.5886 42.1458 47.8698 42.4739C47.1511 42.8021 46.4115 43.0989 45.6563 43.3646C44.9011 43.6302 44.1354 43.8646 43.3542 44.0625C42.5729 44.2656 41.7813 44.4323 40.9792 44.5677C40.1771 44.7031 39.3698 44.8073 38.5573 44.875C37.7448 44.9427 36.9271 44.9792 36.1146 44.9792C35.2969 44.9792 34.4792 44.9427 33.6667 44.875C32.8542 44.8073 32.0469 44.7031 31.2448 44.5677C30.4427 44.4323 29.6511 44.2656 28.8698 44.0625C28.0886 43.8646 27.3229 43.6302 26.5677 43.3646C25.8125 43.0989 25.0729 42.8021 24.3542 42.4739C23.6354 42.1458 22.9323 41.7917 22.2552 41.4062C21.5729 41.0208 20.9219 40.6094 20.2865 40.1667C19.6563 39.7292 19.0521 39.2604 18.474 38.7708C17.8959 38.2812 17.349 37.7656 16.8334 37.2292C16.3125 36.6927 15.8281 36.1354 15.375 35.5625C14.9167 34.9844 14.5 34.3906 14.1146 33.776C13.7292 33.1667 13.3802 32.5364 13.0677 31.8958C12.7552 31.2552 12.4792 30.6042 12.2448 29.9427C12.0052 29.276 11.8073 28.6042 11.6459 27.9219C11.4896 27.2448 11.3698 26.5573 11.2865 25.8646C11.2084 25.1771 11.1667 24.4844 11.1667 23.7917C11.1667 23.0937 11.2084 22.4062 11.2865 21.7135C11.3698 21.0208 11.4896 20.3385 11.6459 19.6562C11.8073 18.9739 12.0052 18.3021 12.2448 17.6406C12.4792 16.9739 12.7552 16.3229 13.0677 15.6823C13.3802 15.0417 13.7292 14.4167 14.1146 13.8021C14.5 13.1927 14.9167 12.5937 15.375 12.0208C15.8281 11.4427 16.3125 10.8854 16.8334 10.3489C17.349 9.81249 17.8959 9.29686 18.474 8.80728C19.0521 8.3177 19.6563 7.85416 20.2865 7.41145C20.9219 6.97395 21.5729 6.55728 22.2552 6.17186C22.9323 5.78645 23.6354 5.43228 24.3542 5.10416C25.0729 4.77603 25.8125 4.47916 26.5677 4.21353C27.3229 3.94791 28.0886 3.71874 28.8698 3.51562C29.6511 3.31249 30.4427 3.14582 31.2448 3.01041C32.0469 2.87499 32.8542 2.77082 33.6667 2.70312C34.4792 2.63541 35.2969 2.60416 36.1146 2.60416C36.9271 2.60416 37.7448 2.63541 38.5573 2.70312C39.3698 2.77082 40.1771 2.87499 40.9792 3.01041C41.7813 3.14582 42.5729 3.31249 43.3542 3.51562C44.1354 3.71874 44.9011 3.94791 45.6563 4.21353C46.4115 4.47916 47.1511 4.77603 47.8698 5.10416C48.5886 5.43228 49.2917 5.78645 49.9688 6.17186C50.6511 6.55728 51.3073 6.97395 51.9375 7.41145C52.5677 7.85416 53.1719 8.3177 53.75 8.80728C54.3281 9.29686 54.875 9.81249 55.3959 10.3489C55.9115 10.8854 56.3959 11.4427 56.8542 12.0208C57.3073 12.5937 57.724 13.1927 58.1094 13.8021C58.4948 14.4167 58.8438 15.0417 59.1563 15.6823C59.4688 16.3229 59.7448 16.9739 59.9792 17.6406C60.2188 18.3021 60.4167 18.9739 60.5781 19.6562C60.7344 20.3385 60.8542 21.0208 60.9375 21.7135C61.0156 22.4062 61.0573 23.0937 61.0573 23.7917Z" fill="white"/>
<mask id="mask1_1_192" style="mask-type:luminance" maskUnits="userSpaceOnUse" x="15" y="3" width="42" height="42">
<path d="M15.6615 3.58333H56.448V44.3698H15.6615V3.58333Z" fill="white"/>
</mask>
<g mask="url(#mask1_1_192)">
<path d="M36.1927 3.58333C24.875 3.58333 15.6615 12.7969 15.6615 24.1146C15.6615 35.4375 24.875 44.6458 36.1927 44.6458C47.5157 44.6458 56.7292 35.4375 56.7292 24.1146C56.7292 12.7969 47.5157 3.58333 36.1927 3.58333ZM36.1927 42.3646C26.1302 42.3646 17.9427 34.1771 17.9427 24.1146C17.9427 14.0521 26.1302 5.86458 36.1927 5.86458C46.2605 5.86458 54.448 14.0521 54.448 24.1146C54.448 34.1771 46.2605 42.3646 36.1927 42.3646Z" fill="#017BAA"/>
</g>
<path d="M48.1042 19.9792C47.6094 20.0365 47.2084 20.4167 47.1198 20.9062L46.0886 26.6562L44.349 15.776C44.2604 15.2292 43.7917 14.8229 43.2396 14.8177C42.6823 14.8073 42.2031 15.1979 42.099 15.7448L40.4584 24.4167L39.2292 19.7604C39.0938 19.2448 38.6198 18.8906 38.0886 18.9115C37.5573 18.9323 37.1094 19.3177 37.0052 19.8385L35.2292 29.2083L33.2552 11.1927C33.1927 10.6198 32.7136 10.1823 32.1354 10.1771C31.5677 10.1719 31.0729 10.5885 30.9896 11.1562L29.2136 23.9115L28.4584 17.2031C28.3906 16.6458 27.9375 16.2187 27.3802 16.1927C26.8229 16.1562 26.3229 16.5469 26.2084 17.0937L24.9479 23.0156L24.5781 21.5208C24.4584 21.0469 24.0521 20.7031 23.5677 20.6615C23.0834 20.6198 22.625 20.8906 22.4271 21.3385L21.3594 23.75H20.3073C19.6771 23.75 19.1667 24.2604 19.1667 24.8906C19.1667 25.5208 19.6771 26.0312 20.3073 26.0312H22.1042C22.5573 26.0312 22.9636 25.7656 23.1459 25.349L23.1667 25.3073L23.9271 28.3698C24.0521 28.8854 24.5052 29.2552 25.0521 29.2344C25.5834 29.2292 26.0365 28.8542 26.1511 28.3333L26.9792 24.4375L27.9584 33.151C28.0261 33.7187 28.5052 34.1562 29.0781 34.1615C29.6406 34.1615 30.1459 33.75 30.224 33.1771L31.9844 20.5469L33.7917 37.0417C33.8542 37.6042 34.3177 38.0312 34.8802 38.0573C34.8959 38.0573 34.9115 38.0573 34.9271 38.0573C35.474 38.0573 35.9427 37.6667 36.0469 37.1302L38.3073 25.2135L39.5365 29.8698C39.6719 30.3854 40.1511 30.7344 40.6771 30.7187C41.2136 30.7031 41.6615 30.3177 41.7604 29.7917L43.125 22.5781L44.9011 33.6562C44.9896 34.2031 45.4584 34.6094 46.0156 34.6146C46.5729 34.6354 47.0521 34.224 47.1511 33.6771L48.7031 24.9896L48.8646 25.349C49.0469 25.7656 49.4584 26.0312 49.9063 26.0312H52.0781C52.7084 26.0312 53.2188 25.5208 53.2188 24.8906C53.2188 24.2604 52.7084 23.75 52.0781 23.75H50.6511L49.2865 20.651C49.0834 20.1927 48.6042 19.9219 48.1042 19.9792Z" fill="#017BAA"/>
</svg>
