<svg width="123" height="43" viewBox="0 0 123 43" fill="none" xmlns="http://www.w3.org/2000/svg">
<mask id="mask0_1_144" style="mask-type:luminance" maskUnits="userSpaceOnUse" x="0" y="0" width="123" height="43">
<path d="M0 0H122.354V42.5104H0V0Z" fill="white"/>
</mask>
<g mask="url(#mask0_1_144)">
<path d="M52.4428 41.3333C52.5053 40.6875 52.7448 38.3646 52.9688 36.1719C53.1928 33.974 53.5105 31.0312 53.6771 29.625C53.8438 28.2187 53.9792 26.9635 53.9844 26.8333C53.9844 26.6719 53.7553 26.651 53.2188 26.7708C52.7969 26.8698 49.7813 27.4531 46.5209 28.0729C43.2553 28.6979 38.7032 29.526 36.3959 29.9219C34.0886 30.3177 30.5 30.8646 28.4219 31.1458C26.3386 31.4219 23.625 31.7083 22.3855 31.7865C20.9948 31.8698 19.6719 31.8333 18.9167 31.6927C18.2448 31.5677 17.1146 31.1927 16.4011 30.8594C15.4375 30.4062 14.5261 29.6875 12.8178 28.0312C11.5573 26.8073 8.63546 24.1146 6.32817 22.0417C4.02088 19.9687 1.63546 17.8385 1.02088 17.3073C0.411505 16.7812 -0.0468282 16.3073 0.00525584 16.2604C0.0521305 16.2187 1.84901 15.8021 3.98963 15.3333C6.13026 14.8698 8.10942 14.4948 8.38546 14.4948C8.66151 14.5 9.26567 14.6719 9.72921 14.8802C10.1928 15.0937 11.6823 16.0104 13.0417 16.9271C14.4011 17.8385 16.2813 18.9583 17.2188 19.4062C18.1563 19.8594 19.474 20.3281 20.1459 20.4531C21.1303 20.6354 21.7761 20.6146 23.5 20.3437C24.6719 20.1562 27.1563 19.6771 29.0209 19.2812C30.8855 18.8854 35.7188 17.7396 39.7709 16.7396C43.8178 15.7396 52.1928 13.5833 58.3803 11.9479C64.5678 10.3125 73.448 7.95833 78.1146 6.71354C82.7865 5.47396 89.6563 3.68229 93.3907 2.73958C97.1251 1.79166 101.359 0.77604 102.797 0.473956C104.953 0.0260396 105.781 -0.0520851 107.464 0.0260403C108.875 0.0937483 109.865 0.260415 110.662 0.562497C111.297 0.807289 112.375 1.36979 113.057 1.8125C113.745 2.25 114.573 2.75 114.901 2.92187C115.229 3.09375 116.219 3.38021 117.104 3.5625C117.99 3.73958 119.276 4.16146 119.969 4.48958C120.662 4.81771 121.51 5.41146 121.859 5.80729C122.208 6.20312 122.495 6.71875 122.495 6.95312C122.495 7.18229 122.349 7.6875 122.167 8.06771C121.984 8.45312 121.396 9.08854 120.859 9.48437C120.318 9.875 119.359 10.4323 118.729 10.7083C118.094 10.9896 116.219 11.6406 114.563 12.1562C112.906 12.6719 109.526 13.6458 107.052 14.3177C104.578 14.9948 99.474 16.3073 95.7032 17.2448C91.9376 18.1771 86.1823 19.5573 82.9219 20.3073C79.6615 21.0573 76.8282 21.7187 76.6303 21.776C76.4323 21.8385 75.0105 23.5469 73.474 25.5833C71.9323 27.6198 69.224 31.1094 67.448 33.3333C65.6771 35.5625 63.4896 38.2031 62.5938 39.1979C61.698 40.1979 60.6615 41.1615 60.2865 41.3333C59.9115 41.5104 58.4063 41.849 56.9375 42.0833C55.4688 42.3177 53.8282 42.5104 53.2969 42.5104C52.3282 42.5104 52.3282 42.5104 52.4428 41.3333ZM45.5261 7.25C44.3646 5.4375 43.2969 3.73437 43.1511 3.46354C42.9271 3.03646 42.9375 2.93229 43.2448 2.70833C43.4375 2.56771 45.0365 1.97396 46.7969 1.39583C49.3334 0.562497 50.1719 0.364581 50.8438 0.458331C51.3073 0.520831 52.6459 0.947914 53.8073 1.41146C54.974 1.86979 57.7917 3.08333 60.0678 4.09896C62.3438 5.11979 64.2084 6.01042 64.2084 6.08333C64.2084 6.15104 62.7136 6.59896 60.8855 7.07812C59.0573 7.55208 55.3282 8.52604 52.599 9.23958C47.6303 10.5365 47.6303 10.5365 45.5261 7.25Z" fill="#017BAA"/>
</g>
</svg>
