<svg width="77" height="63" viewBox="0 0 77 63" fill="none" xmlns="http://www.w3.org/2000/svg">
<mask id="mask0_1_197" style="mask-type:luminance" maskUnits="userSpaceOnUse" x="0" y="0" width="36" height="63">
<path d="M0 0H35.2656V62.6719H0V0Z" fill="white"/>
</mask>
<g mask="url(#mask0_1_197)">
<path d="M0 31.3958C0 48.6875 14.0677 62.7604 31.3646 62.7604H34.6146V52.3698H31.3646C19.7969 52.3698 10.3906 42.9583 10.3906 31.3958C10.3906 19.8281 19.7969 10.4167 31.3646 10.4167H34.6146V0.0260315H31.3646C14.0677 0.0260315 0 14.0989 0 31.3958Z" fill="#017BAA"/>
</g>
<mask id="mask1_1_197" style="mask-type:luminance" maskUnits="userSpaceOnUse" x="40" y="0" width="37" height="63">
<path d="M40.5989 0H76.5937V62.6719H40.5989V0Z" fill="white"/>
</mask>
<g mask="url(#mask1_1_197)">
<path d="M73.1146 10.4167H76.3646V0.0260315H73.1146C55.8229 0.0260315 41.75 14.0989 41.75 31.3958C41.75 48.6875 55.8229 62.7604 73.1146 62.7604H76.3646V52.3698H73.1146C63.4635 52.3698 55.1302 45.6719 52.7917 36.5885H69.3542V26.1979H52.7917C55.1302 17.1146 63.4635 10.4167 73.1146 10.4167Z" fill="#017BAA"/>
</g>
</svg>
