<svg width="60" height="82" viewBox="0 0 60 82" fill="none" xmlns="http://www.w3.org/2000/svg">
<mask id="mask0_1_195" style="mask-type:luminance" maskUnits="userSpaceOnUse" x="0" y="57" width="49" height="25">
<path d="M0 57.3333H48.7656V81.3333H0V57.3333Z" fill="white"/>
</mask>
<g mask="url(#mask0_1_195)">
<path d="M44.8229 63.7188C44.1927 61.1875 42.6718 58.9063 40.6458 57.5156C36.0885 61.1875 30.3906 63.3385 24.0573 63.3385C17.7291 63.3385 12.0312 61.1875 7.47393 57.5156C5.44789 58.9063 3.92705 61.0625 3.29164 63.7188L0.505179 76C0.255179 77.3958 1.1406 78.7865 2.53122 79.0417C16.8437 81.6979 31.151 81.6979 45.5833 79.0417C46.9791 78.7865 47.8646 77.3958 47.6093 76L44.8229 63.7188Z" fill="#017BAA"/>
</g>
<mask id="mask1_1_195" style="mask-type:luminance" maskUnits="userSpaceOnUse" x="0" y="12" width="49" height="50">
<path d="M0 12H48.7656V61.3333H0V12Z" fill="white"/>
</mask>
<g mask="url(#mask1_1_195)">
<path d="M24.0573 12.6927C10.7656 12.6927 0 23.4531 0 36.75C0 50.0469 10.7656 60.8073 24.0573 60.8073C37.3542 60.8073 48.1146 50.0469 48.1146 36.75C48.1146 23.4531 37.3542 12.6927 24.0573 12.6927ZM35.4531 36.75V44.349C35.4531 50.6771 30.3906 55.7448 24.0573 55.7448C17.7292 55.7448 12.6615 50.6771 12.6615 44.349V29.151C12.6615 22.8229 17.7292 17.7552 24.0573 17.7552C30.3906 17.7552 35.4531 22.8229 35.4531 29.151V36.75Z" fill="#017BAA"/>
</g>
<path d="M48.1146 19.0208C48.1146 19.3594 48.0521 19.6823 47.9219 19.9896C47.7969 20.3021 47.6146 20.5781 47.375 20.8125C47.1354 21.0521 46.8646 21.2344 46.5521 21.3646C46.2448 21.4896 45.9219 21.5573 45.5833 21.5573C45.25 21.5573 44.9271 21.4896 44.6146 21.3646C44.3073 21.2344 44.0312 21.0521 43.7916 20.8125C43.5573 20.5781 43.375 20.3021 43.2448 19.9896C43.1146 19.6823 43.0521 19.3594 43.0521 19.0208C43.0521 18.6875 43.1146 18.3646 43.2448 18.0521C43.375 17.7448 43.5573 17.4687 43.7916 17.2344C44.0312 16.9948 44.3073 16.8125 44.6146 16.6823C44.9271 16.5521 45.25 16.4896 45.5833 16.4896C45.9219 16.4896 46.2448 16.5521 46.5521 16.6823C46.8646 16.8125 47.1354 16.9948 47.375 17.2344C47.6146 17.4687 47.7969 17.7448 47.9219 18.0521C48.0521 18.3646 48.1146 18.6875 48.1146 19.0208Z" fill="#017BAA"/>
<path d="M24.0572 25.3542C17.7291 25.3542 12.6614 30.4167 12.6614 36.75C12.6614 43.0781 17.7291 48.1458 24.0572 48.1458C30.3905 48.1458 35.453 43.0781 35.453 36.75C35.453 30.4167 30.3905 25.3542 24.0572 25.3542ZM24.0572 40.5469C21.9062 40.5469 20.2603 38.901 20.2603 36.75C20.2603 34.599 21.9062 32.9531 24.0572 32.9531C26.2135 32.9531 27.8593 34.599 27.8593 36.75C27.8593 38.901 26.2135 40.5469 24.0572 40.5469Z" fill="#017BAA"/>
<path d="M45.5833 5.09375C41.9114 5.09375 38.3646 6.48958 35.8333 9.14583C35.3281 9.65104 35.3281 10.4115 35.8333 10.9167C36.0885 11.1719 36.4687 11.2969 36.7187 11.2969C37.0989 11.2969 37.3541 11.1719 37.6094 10.9167C39.7604 8.76563 42.5469 7.625 45.5833 7.625C48.625 7.625 51.4062 8.76563 53.5625 10.9167C54.0677 11.4271 54.8281 11.4271 55.3333 10.9167C55.8385 10.4115 55.8385 9.65104 55.3333 9.14583C52.8021 6.48958 49.2552 5.09375 45.5833 5.09375Z" fill="#017BAA"/>
<mask id="mask2_1_195" style="mask-type:luminance" maskUnits="userSpaceOnUse" x="31" y="0" width="29" height="8">
<path d="M31.4323 0H59.6875V8H31.4323V0Z" fill="white"/>
</mask>
<g mask="url(#mask2_1_195)">
<path d="M59.1302 5.47396C55.4583 1.92708 50.651 0.03125 45.5833 0.03125C40.5208 0.03125 35.7083 1.92708 32.0364 5.47396C31.5312 5.97917 31.5312 6.73958 32.0364 7.24479C32.5416 7.75521 33.3021 7.75521 33.8073 7.24479C36.9739 4.20833 41.151 2.5625 45.5833 2.5625C50.0156 2.5625 54.1927 4.20833 57.3594 7.24479C57.6146 7.5 57.9948 7.625 58.2448 7.625C58.625 7.625 58.8802 7.5 59.1302 7.24479C59.6406 6.73958 59.6406 5.97917 59.1302 5.47396Z" fill="#017BAA"/>
</g>
<path d="M45.5833 10.1615C43.3073 10.1615 41.151 11.0469 39.6354 12.8177C39.125 13.3229 39.125 14.0833 39.6354 14.5885C40.1406 15.099 40.901 15.099 41.4062 14.5885C42.5468 13.4531 43.9375 12.8177 45.5833 12.8177C47.2291 12.8177 48.625 13.4531 49.7604 14.5885C50.0156 14.8437 50.3958 14.9687 50.651 14.9687C50.901 14.9687 51.2812 14.8437 51.5364 14.5885C52.0416 14.0833 52.0416 13.3229 51.5364 12.8177C50.0156 11.0469 47.8645 10.1615 45.5833 10.1615Z" fill="#017BAA"/>
</svg>
