<svg width="46" height="65" viewBox="0 0 46 65" fill="none" xmlns="http://www.w3.org/2000/svg">
<mask id="mask0_1_161" style="mask-type:luminance" maskUnits="userSpaceOnUse" x="0" y="0" width="46" height="65">
<path d="M0 0H45.7552V64.6562H0V0Z" fill="white"/>
</mask>
<g mask="url(#mask0_1_161)">
<path d="M22.8333 33.2083C22.099 33.2083 21.3698 33.1354 20.651 32.9896C19.9323 32.849 19.2292 32.6354 18.5521 32.3542C17.8698 32.0729 17.224 31.7292 16.6146 31.3177C16.0052 30.9115 15.4375 30.4479 14.9167 29.9271C14.3958 29.4063 13.9323 28.8438 13.526 28.2292C13.1146 27.6198 12.7708 26.974 12.4896 26.2917C12.2083 25.6146 11.9948 24.9167 11.8542 24.1927C11.7083 23.474 11.6354 22.7448 11.6354 22.0104C11.6354 21.2708 11.7083 20.5469 11.8542 19.8229C11.9948 19.1042 12.2083 18.4011 12.4896 17.724C12.7708 17.0417 13.1146 16.3958 13.526 15.7865C13.9323 15.1771 14.3958 14.6094 14.9167 14.0886C15.4375 13.5677 16.0052 13.1042 16.6146 12.6979C17.224 12.2865 17.8698 11.9427 18.5521 11.6615C19.2292 11.3802 19.9323 11.1667 20.651 11.0261C21.3698 10.8802 22.099 10.8073 22.8333 10.8073C23.5729 10.8073 24.3021 10.8802 25.0208 11.0261C25.7396 11.1667 26.4427 11.3802 27.1198 11.6615C27.8021 11.9427 28.4479 12.2865 29.0573 12.6979C29.6667 13.1042 30.2344 13.5677 30.7552 14.0886C31.276 14.6094 31.7396 15.1771 32.1458 15.7865C32.5573 16.3958 32.901 17.0417 33.1823 17.724C33.4635 18.4011 33.6771 19.1042 33.8177 19.8229C33.9635 20.5469 34.0365 21.2708 34.0365 22.0104C34.0365 22.7448 33.9635 23.474 33.8177 24.1927C33.6771 24.9167 33.4635 25.6146 33.1823 26.2917C32.901 26.974 32.5573 27.6198 32.1458 28.2292C31.7396 28.8438 31.276 29.4063 30.7552 29.9271C30.2344 30.4479 29.6667 30.9115 29.0573 31.3177C28.4479 31.7292 27.8021 32.0729 27.1198 32.3542C26.4427 32.6354 25.7396 32.849 25.0208 32.9896C24.3021 33.1354 23.5729 33.2083 22.8333 33.2083ZM22.8333 0.0677185C22.0885 0.0677185 21.3438 0.104178 20.599 0.177094C19.8542 0.255219 19.1146 0.364594 18.3802 0.510427C17.651 0.65626 16.9271 0.838553 16.2083 1.0573C15.4948 1.27605 14.7917 1.52605 14.099 1.81251C13.4115 2.09897 12.7344 2.41668 12.0781 2.77084C11.4167 3.12501 10.776 3.51043 10.1562 3.92189C9.53125 4.33855 8.93229 4.78647 8.35417 5.26043C7.77604 5.73439 7.22396 6.23439 6.69792 6.76564C6.16667 7.29168 5.66667 7.84376 5.19271 8.42189C4.71875 9.00001 4.27083 9.59897 3.85417 10.224C3.4375 10.8438 3.05729 11.4844 2.70312 12.1458C2.34896 12.8021 2.03125 13.4792 1.74479 14.1667C1.45833 14.8594 1.20313 15.5625 0.989583 16.2761C0.770834 16.9948 0.588542 17.7188 0.442708 18.4531C0.296875 19.1823 0.1875 19.9219 0.109375 20.6667C0.036459 21.4115 0 22.1563 0 22.9063C0 34.0833 19.0469 59.2708 22.8333 64.1615C26.625 59.2708 45.6771 34.0833 45.6771 22.9063C45.6771 22.1563 45.6406 21.4115 45.5677 20.6667C45.4896 19.9219 45.3802 19.1823 45.2344 18.4479C45.0885 17.7188 44.9062 16.9948 44.6875 16.2761C44.4688 15.5625 44.2188 14.8594 43.9323 14.1667C43.6458 13.4792 43.3281 12.8021 42.974 12.1406C42.6198 11.4844 42.2344 10.8438 41.8177 10.224C41.4062 9.59897 40.9583 9.00001 40.4844 8.42189C40.0104 7.84376 39.5104 7.29168 38.9792 6.76043C38.4531 6.23439 37.8958 5.73439 37.3177 5.25522C36.7396 4.78126 36.1406 4.33855 35.5208 3.92189C34.8958 3.50522 34.2552 3.12501 33.599 2.77084C32.9375 2.41668 32.2656 2.09897 31.5729 1.81251C30.8802 1.52605 30.1771 1.27084 29.4635 1.0573C28.75 0.838553 28.0208 0.65626 27.2917 0.510427C26.5573 0.364594 25.8177 0.255219 25.0729 0.177094C24.3281 0.104178 23.5833 0.0677185 22.8333 0.0677185Z" fill="#017BAA"/>
</g>
</svg>
