<svg width="121" height="76" viewBox="0 0 121 76" fill="none" xmlns="http://www.w3.org/2000/svg">
<mask id="mask0_1_193" style="mask-type:luminance" maskUnits="userSpaceOnUse" x="0" y="0" width="121" height="76">
<path d="M0 0H120.359V75.599H0V0Z" fill="white"/>
</mask>
<g mask="url(#mask0_1_193)">
<path d="M3.38021 0C1.51562 0 0.015625 1.5 0.015625 3.36458V62.9531C0.015625 64.8177 1.51562 66.3177 3.38021 66.3177H54.3698C53.0469 68.3021 51.5625 70.8385 51.3073 72.5521H45.224C44.9792 72.5521 44.7812 72.75 44.7812 72.9948V75.4219C44.7812 75.6667 44.9792 75.8646 45.224 75.8646H75.3854C75.6302 75.8646 75.8281 75.6667 75.8281 75.4219V72.9948C75.8281 72.75 75.6302 72.5521 75.3854 72.5521H69.2969C69.0469 70.8385 67.5625 68.3021 66.2344 66.3177H117.224C119.094 66.3177 120.594 64.8177 120.594 62.9531V3.36458C120.594 1.5 119.094 0 117.224 0H3.38021ZM2.72917 3.59896H117.88V62.7188H2.72917V3.59896Z" fill="#017BAA"/>
</g>
<mask id="mask1_1_193" style="mask-type:luminance" maskUnits="userSpaceOnUse" x="38" y="9" width="26" height="44">
<path d="M38.0105 9.875H63.3386V52.5417H38.0105V9.875Z" fill="white"/>
</mask>
<g mask="url(#mask1_1_193)">
<path d="M41.7397 32.6667C41.7397 22.8073 49.474 14.7396 59.1928 14.151L62.0105 10.474C61.4428 10.4271 60.8803 10.3854 60.3074 10.3854C48.0001 10.3854 38.0261 20.3646 38.0261 32.6667C38.0261 40.8229 42.4167 47.9271 48.948 51.8125L49.9167 48.0469C44.9845 44.7083 41.7397 39.0573 41.7397 32.6667Z" fill="#017BAA"/>
</g>
<mask id="mask2_1_193" style="mask-type:luminance" maskUnits="userSpaceOnUse" x="58" y="12" width="25" height="44">
<path d="M58.0052 12.5417H82.7761V55.2083H58.0052V12.5417Z" fill="white"/>
</mask>
<g mask="url(#mask2_1_193)">
<path d="M71.5834 13.474L70.5678 17.2031C75.5678 20.5365 78.8751 26.2187 78.8751 32.6667C78.8751 42.526 71.1407 50.599 61.422 51.1771L58.6042 54.8594C59.1667 54.9062 59.7292 54.9479 60.3074 54.9479C72.6095 54.9479 82.5886 44.974 82.5886 32.6667C82.5886 24.4844 78.1615 17.349 71.5834 13.474Z" fill="#017BAA"/>
</g>
<mask id="mask3_1_193" style="mask-type:luminance" maskUnits="userSpaceOnUse" x="44" y="6" width="32" height="53">
<path d="M44.6719 6.67188H75.3385V58.3958H44.6719V6.67188Z" fill="white"/>
</mask>
<g mask="url(#mask3_1_193)">
<path d="M75.1615 27.099H64.0208L65.1146 23.0885L67.1979 15.4427L68.1771 11.8437L69.5885 6.67188L66.1406 11.1823L63.6667 14.4167L57.4896 22.5L45.4531 38.2396H56.5938L55.5052 42.2188L53.4167 49.8906L52.4323 53.4896L51.0208 58.6615L54.474 54.151L56.9479 50.9167L63.2031 42.7292L75.1615 27.099Z" fill="#017BAA"/>
</g>
</svg>
