<svg width="92" height="69" viewBox="0 0 92 69" fill="none" xmlns="http://www.w3.org/2000/svg">
<mask id="mask0_1_194" style="mask-type:luminance" maskUnits="userSpaceOnUse" x="52" y="3" width="40" height="60">
<path d="M52.1824 3.79167H91.5157V62.4583H52.1824V3.79167Z" fill="white"/>
</mask>
<g mask="url(#mask0_1_194)">
<path d="M74.4272 61.2708H55.3439C54.2918 61.2708 53.4376 60.4167 53.4376 59.3646C53.4376 58.3125 54.2918 57.4583 55.3439 57.4583H74.4272C77.5835 57.4583 80.1512 54.8854 80.1512 51.7292V47.9167C80.1512 46.8594 81.0105 46.0052 82.0626 46.0052H85.8439C86.896 46.0052 87.7501 45.1511 87.7501 44.099V21.1979C87.7501 20.1458 86.896 19.2865 85.8439 19.2865H82.0626C81.0105 19.2865 80.1512 18.4323 80.1512 17.3802V13.5625C80.1512 10.4063 77.5835 7.83855 74.4272 7.83855H62.9793C61.9272 7.83855 61.0678 6.98438 61.0678 5.9323C61.0678 4.87501 61.9272 4.02084 62.9793 4.02084H74.4272C79.6876 4.02084 83.9689 8.30209 83.9689 13.5625V15.474H85.8439C89.0001 15.474 91.5678 18.0417 91.5678 21.1979V44.099C91.5678 47.2552 89.0001 49.8229 85.8439 49.8229H83.9689V51.7292C83.9689 56.9896 79.6876 61.2708 74.4272 61.2708Z" fill="#017BAA"/>
</g>
<mask id="mask1_1_194" style="mask-type:luminance" maskUnits="userSpaceOnUse" x="0" y="3" width="39" height="60">
<path d="M0 3.79167H38.849V62.4583H0V3.79167Z" fill="white"/>
</mask>
<g mask="url(#mask1_1_194)">
<path d="M24.8125 61.2708H9.54167C4.28646 61.2708 0 56.9896 0 51.7292V13.5625C0 8.30209 4.28646 4.02084 9.54167 4.02084H36.2604C37.3125 4.02084 38.1667 4.87501 38.1667 5.9323C38.1667 6.98438 37.3125 7.83855 36.2604 7.83855H9.54167C6.38542 7.83855 3.81771 10.4063 3.81771 13.5625V51.7292C3.81771 54.8854 6.38542 57.4583 9.54167 57.4583H24.8125C25.8646 57.4583 26.7188 58.3125 26.7188 59.3646C26.7188 60.4167 25.8646 61.2708 24.8125 61.2708Z" fill="#017BAA"/>
</g>
<mask id="mask2_1_194" style="mask-type:luminance" maskUnits="userSpaceOnUse" x="24" y="0" width="43" height="69">
<path d="M24.1824 0H66.849V68.6406H24.1824V0Z" fill="white"/>
</mask>
<g mask="url(#mask2_1_194)">
<path d="M35.5105 68.9062C35.2084 68.9062 34.8959 68.8333 34.6146 68.6823C33.7969 68.25 33.4063 67.2865 33.698 66.401L41.6928 42.1875H26.7188C26.0105 42.1875 25.3594 41.7969 25.0261 41.1667C24.698 40.5365 24.7449 39.776 25.1511 39.1927L51.5834 1.02603C52.1042 0.276034 53.0938 0.0104086 53.9167 0.359367C54.7553 0.729159 55.2136 1.6302 55.0209 2.52083L49.6459 26.9219H64.8855C65.6094 26.9219 66.2761 27.3333 66.599 27.9896C66.9219 28.6406 66.8386 29.4167 66.3959 29.9948L37.0209 68.1615C36.6511 68.6458 36.0834 68.9062 35.5105 68.9062ZM30.3646 38.3698H44.3334C44.948 38.3698 45.5209 38.6667 45.8803 39.1615C46.2396 39.6562 46.3386 40.2969 46.1407 40.8802L40.8386 56.9427L61.0105 30.7396H47.2709C46.6928 30.7396 46.1459 30.474 45.7865 30.026C45.4219 29.5729 45.2813 28.9844 45.4063 28.4167L49.2084 11.1615L30.3646 38.3698Z" fill="#017BAA"/>
</g>
</svg>
